<svg width="36" height="35" viewBox="0 0 36 35" fill="none" xmlns="http://www.w3.org/2000/svg">
    <path d="M3.48535 9.74128C3.48535 8.90401 4.00689 8.15536 4.79228 7.86521L17.3062 3.24225C17.7534 3.07701 18.245 3.07701 18.6923 3.24225L31.2062 7.86521C31.9916 8.15536 32.5131 8.90401 32.5131 9.74128V25.0905C32.5131 25.9196 32.0016 26.6628 31.2271 26.9588L18.7132 31.7411C18.2534 31.9168 17.745 31.9168 17.2853 31.7411L4.77138 26.9588C3.99691 26.6628 3.48535 25.9196 3.48535 25.0905L3.48535 9.74128Z" stroke="white" stroke-width="2"/>
    <path d="M17.0443 26.0939H16.0895L17.0443 19.4098H13.7023C13.1485 19.4098 13.1581 19.1043 13.3395 18.7796C13.5209 18.455 13.3872 18.7032 13.4063 18.6651C14.6381 16.488 16.4905 13.2414 18.9541 8.90637H19.9089L18.9541 15.5904H22.2961C22.764 15.5904 22.8308 15.9055 22.7449 16.0774L22.678 16.2206C18.9159 22.7996 17.0443 26.0939 17.0443 26.0939Z" fill="white"/>
</svg>
