<svg width="24" height="24" viewBox="0 0 24 24" fill="none" xmlns="http://www.w3.org/2000/svg">
<path d="M2.04761 7.11756C2.04761 6.28029 2.56914 5.53163 3.35454 5.24148L11.3069 2.30366C11.7542 2.13843 12.2458 2.13843 12.6931 2.30366L20.6454 5.24148C21.4308 5.53163 21.9524 6.28029 21.9524 7.11756L21.9524 16.7722C21.9524 17.6013 21.4408 18.3444 20.6663 18.6404L12.714 21.6795C12.2542 21.8552 11.7458 21.8552 11.286 21.6795L3.33364 18.6404C2.55916 18.3444 2.04761 17.6013 2.04761 16.7722L2.04761 7.11756Z" stroke="#323232" stroke-width="2"/>
<path d="M11.3453 17.8929H10.6905L11.3453 13.3095H9.0536C8.67383 13.3095 8.68038 13.1 8.80479 12.8774C8.92919 12.6548 8.83753 12.825 8.85062 12.7988C9.69526 11.306 10.9655 9.07977 12.6548 6.10715H13.3095L12.6548 10.6905H14.9465C15.2673 10.6905 15.3131 10.9066 15.2542 11.0244L15.2084 11.1226C12.6286 15.6339 11.3453 17.8929 11.3453 17.8929Z" fill="#323232"/>
</svg>
