<svg width="24" height="24" viewBox="0 0 24 24" fill="none" xmlns="http://www.w3.org/2000/svg">
<g id="Icon=Deploy">
<path id="Vector" d="M12 1C5.928 1 1 5.928 1 12C1 18.072 5.928 23 12 23C18.072 23 23 18.072 23 12C23 5.928 18.072 1 12 1ZM12 20.8C7.149 20.8 3.2 16.851 3.2 12C3.2 7.149 7.149 3.2 12 3.2C16.851 3.2 20.8 7.149 20.8 12C20.8 16.851 16.851 20.8 12 20.8ZM16.719 10.009C16.279 7.798 14.343 6.137 12 6.137C10.141 6.137 8.535 7.193 7.732 8.733C5.796 8.931 4.3 10.57 4.3 12.55C4.3 14.673 6.027 16.4 8.15 16.4H16.488C18.259 16.4 19.7 14.959 19.7 13.188C19.7 11.494 18.38 10.119 16.719 10.009ZM16.4 14.2H8.15C7.237 14.2 6.5 13.463 6.5 12.55C6.5 11.637 7.237 10.9 8.15 10.9H9.14L9.679 9.745C10.13 8.876 11.021 8.337 12 8.337C13.243 8.337 14.321 9.217 14.563 10.438L14.871 12H16.4C17.005 12 17.5 12.495 17.5 13.1C17.5 13.705 17.005 14.2 16.4 14.2Z" fill="#323232"/>
</g>
</svg>
