<svg width="20" height="20" viewBox="0 0 20 20" fill="none" xmlns="http://www.w3.org/2000/svg">
<g id="fi_3114553" clip-path="url(#clip0_1663_14365)">
<g id="Group">
<g id="Group_2">
<path id="Vector" d="M2.30635 15.5992C1.63805 15.5992 0.985142 15.4286 0.393423 15.0964C0.0889743 14.9396 -0.0289439 14.5473 0.152933 14.2522C0.757227 13.2866 0.97544 12.1062 0.698763 10.9962C0.411987 9.84535 -0.00295437 8.87611 1.58574e-05 7.65782C0.0103127 3.38361 3.56791 -0.0814611 7.83776 0.0014578C11.9619 0.0845253 15.3608 3.55138 15.3609 7.67663C15.3609 13.0643 9.7146 16.8469 4.72991 14.7664C4.04285 15.3057 3.17925 15.5992 2.30635 15.5992ZM1.49429 14.2838C2.43328 14.5754 3.48934 14.3424 4.21344 13.6424C4.39185 13.4699 4.65872 13.4265 4.88258 13.5335C9.15016 15.5739 14.1728 12.3758 14.1727 7.67663C14.1727 4.17008 11.3201 1.2599 7.81385 1.1893C4.20047 1.11752 1.19682 4.04399 1.18811 7.66069C1.18529 8.81785 1.63676 9.74263 1.88349 10.8388C2.14343 11.994 2.00651 13.2155 1.49429 14.2838Z" fill="#03A9F4"/>
</g>
<g id="Group_3">
<path id="Vector_2" d="M17.693 20C16.8201 20 15.9565 19.7065 15.2695 19.1673C12.6186 20.2736 9.46528 19.7698 7.29172 17.8927C7.0434 17.6783 7.01598 17.3032 7.23038 17.0548C7.44483 16.8065 7.81992 16.779 8.06823 16.9935C9.99601 18.6583 12.8193 19.0328 15.1168 17.9344C15.3406 17.8273 15.6074 17.8708 15.7859 18.0433C16.51 18.7433 17.5661 18.9764 18.5051 18.6846C17.9008 17.4243 17.8171 15.9804 18.2854 14.6437C18.2896 14.6317 18.2942 14.6199 18.2991 14.6081C18.6411 13.8019 18.8134 12.9451 18.8113 12.0616C18.8075 10.5038 18.2893 9.06276 17.3126 7.89422C17.1022 7.64244 17.1358 7.26785 17.3875 7.05746C17.6392 6.84702 18.0139 6.88058 18.2242 7.13231C19.3646 8.49668 19.995 10.2462 19.9994 12.0587C20.0019 13.0968 19.8005 14.1043 19.4008 15.0536C18.9809 16.2691 19.174 17.5705 19.8464 18.653C20.0284 18.9481 19.9104 19.3404 19.6058 19.4973C19.0142 19.8294 18.3612 20 17.693 20Z" fill="#03A9F4"/>
</g>
<g id="Group_4">
<g id="Group_5">
<path id="Vector_3" d="M7.68021 8.64569C8.19935 8.64569 8.62019 8.22507 8.62019 7.70621C8.62019 7.18735 8.19935 6.76672 7.68021 6.76672C7.16108 6.76672 6.74023 7.18735 6.74023 7.70621C6.74023 8.22507 7.16108 8.64569 7.68021 8.64569Z" fill="#03A9F4"/>
</g>
<g id="Group_6">
<path id="Vector_4" d="M4.21732 8.64569C4.73646 8.64569 5.1573 8.22507 5.1573 7.70621C5.1573 7.18735 4.73646 6.76672 4.21732 6.76672C3.69819 6.76672 3.27734 7.18735 3.27734 7.70621C3.27734 8.22507 3.69819 8.64569 4.21732 8.64569Z" fill="#03A9F4"/>
</g>
<g id="Group_7">
<path id="Vector_5" d="M11.1431 8.64569C11.6622 8.64569 12.0831 8.22507 12.0831 7.70621C12.0831 7.18735 11.6622 6.76672 11.1431 6.76672C10.624 6.76672 10.2031 7.18735 10.2031 7.70621C10.2031 8.22507 10.624 8.64569 11.1431 8.64569Z" fill="#03A9F4"/>
</g>
</g>
</g>
</g>
<defs>
<clipPath id="clip0_1663_14365">
<rect width="20" height="20" fill="white"/>
</clipPath>
</defs>
</svg>
