<svg width="26" height="24" viewBox="0 0 26 24" fill="none" xmlns="http://www.w3.org/2000/svg">
<g id="Icon=Plan">
<g id="Exclude">
<mask id="path-1-outside-1_347_221" maskUnits="userSpaceOnUse" x="0.23877" y="0.842598" width="25" height="22" fill="black">
<rect fill="white" x="0.23877" y="0.842598" width="25" height="22"/>
<path fill-rule="evenodd" clip-rule="evenodd" d="M7.22899 12.6947C7.05691 12.631 6.86801 12.631 6.69592 12.6947L2.77938 14.1462C2.47484 14.2591 2.27171 14.5522 2.27171 14.8809V19.8733C2.27171 20.1989 2.47098 20.4898 2.77133 20.605L6.68787 22.1065C6.86478 22.1744 7.06014 22.1744 7.23705 22.1065L11.1536 20.605C11.4539 20.4898 11.6532 20.1989 11.6532 19.8733V18.7012H12.7552C13.4173 18.7012 13.9539 18.1571 13.9539 17.486V14.3992C13.9539 14.2214 14.0934 14.0766 14.2674 14.0711L14.2764 14.0712H15.3797V16.2078C15.3797 16.5333 15.5789 16.8243 15.8793 16.9394L19.7958 18.441C19.9727 18.5088 20.1681 18.5088 20.345 18.441L24.2615 16.9394C24.5619 16.8243 24.7612 16.5333 24.7612 16.2078V11.2154C24.7612 10.8867 24.558 10.5936 24.2535 10.4807L20.337 9.02921C20.1649 8.96544 19.976 8.96544 19.8039 9.02921L15.8873 10.4807C15.5828 10.5936 15.3797 10.8867 15.3797 11.2154V13.1842L14.2777 13.184L14.2674 13.184C14.0934 13.1786 13.9539 13.0338 13.9539 12.856V7.45407C13.9539 6.78294 13.4173 6.23887 12.7552 6.23887H10.6203V4.0766C10.6203 3.74789 10.4171 3.45481 10.1126 3.34194L6.19605 1.89043C6.02396 1.82665 5.83507 1.82665 5.66298 1.89043L1.74644 3.34194C1.4419 3.45481 1.23877 3.7479 1.23877 4.0766V9.06904C1.23877 9.39456 1.43804 9.68551 1.73839 9.80066L5.65493 11.3022C5.83184 11.3701 6.0272 11.3701 6.20411 11.3022L10.1206 9.80066C10.421 9.68551 10.6203 9.39456 10.6203 9.06904V7.12586H12.7552C12.934 7.12586 13.079 7.27281 13.079 7.45407V12.856C13.079 13.149 13.1814 13.4179 13.3516 13.6276C13.1814 13.8373 13.079 14.1062 13.079 14.3992V17.486C13.079 17.6673 12.934 17.8142 12.7552 17.8142H11.6532V14.8809C11.6532 14.5522 11.4501 14.2591 11.1455 14.1462L7.22899 12.6947ZM11.0805 20.4091C11.3009 20.3246 11.4466 20.1113 11.4466 19.8733V14.8809C11.4466 14.7278 11.3863 14.585 11.2848 14.4802C11.2269 14.4203 11.1555 14.3727 11.0742 14.3426L7.1577 12.8911C7.03142 12.8443 6.89278 12.8443 6.7665 12.8911L2.84995 14.3426C2.62648 14.4254 2.47794 14.6402 2.47794 14.8805V19.873C2.47794 20.0265 2.53854 20.1697 2.6407 20.2747C2.69701 20.3326 2.76598 20.379 2.8444 20.4091L6.76095 21.9106C6.89077 21.9604 7.03415 21.9604 7.16397 21.9106L11.0805 20.4091ZM2.4783 19.8733C2.4783 20.0267 2.53876 20.1697 2.6407 20.2747C2.69694 20.3325 2.76579 20.3787 2.84404 20.4087L6.76059 21.9103C6.89041 21.96 7.03379 21.96 7.16361 21.9103L11.0802 20.4087C11.3005 20.3242 11.4463 20.111 11.4463 19.873V14.8805C11.4463 14.7276 11.3861 14.585 11.2848 14.4802C11.2269 14.4204 11.1557 14.373 11.0746 14.3429L7.15806 12.8914C7.03178 12.8446 6.89314 12.8446 6.76686 12.8914L2.85031 14.3429C2.62684 14.4258 2.4783 14.6406 2.4783 14.8809V19.8733ZM13.7474 17.486C13.7474 18.0415 13.3032 18.4918 12.7552 18.4918H11.6134V18.4914H12.7549C13.3028 18.4914 13.747 18.0411 13.747 17.4856V14.3988C13.747 14.1061 13.9778 13.868 14.2649 13.8613L14.2773 13.8614H15.4192V13.3936H15.4196V13.8618H14.2777L14.2653 13.8617C13.9781 13.8684 13.7474 14.1065 13.7474 14.3992V17.486ZM13.9007 13.2341C13.9941 13.3296 14.1226 13.3898 14.2649 13.3931L14.2773 13.393L15.4192 13.3933V13.3936L14.2777 13.3934L14.2653 13.3935C14.1227 13.3902 13.9941 13.3298 13.9007 13.2341ZM13.4629 6.74913C13.6388 6.93062 13.7474 7.1795 13.7474 7.45407V12.856C13.7474 13.0034 13.8059 13.137 13.9007 13.2341C13.8057 13.1369 13.747 13.0032 13.747 12.8556V7.4537C13.747 7.17931 13.6386 6.93059 13.4629 6.74913ZM10.5804 6.91606H10.5801V6.44793H12.7549C13.0321 6.44793 13.2828 6.56323 13.4629 6.74913C13.2829 6.56345 13.0323 6.4483 12.7552 6.4483H10.5804V6.91606ZM13.1323 7.07601C13.0362 6.97748 12.9027 6.91644 12.7552 6.91644H10.5804V6.91606H12.7549C12.9025 6.91606 13.0361 6.97726 13.1323 7.07601ZM13.5712 13.5621C13.3944 13.3805 13.2852 13.131 13.2852 12.8556V7.4537C13.2852 7.30649 13.2268 7.1731 13.1323 7.07601C13.2271 7.17313 13.2856 7.30667 13.2856 7.45407V12.856C13.2856 13.0903 13.3646 13.3059 13.4971 13.4769C13.5202 13.5067 13.545 13.5351 13.5712 13.5621ZM13.6409 13.6273C13.641 13.6274 13.6411 13.6275 13.6413 13.6276C13.5882 13.6726 13.5399 13.7231 13.4971 13.7783C13.3646 13.9493 13.2856 14.1649 13.2856 14.3992V17.486C13.2856 17.7829 13.0481 18.0236 12.7552 18.0236H11.6134V18.4914H11.613V18.0233H12.7549C13.0478 18.0233 13.2852 17.7826 13.2852 17.4856V14.3988C13.2852 14.0889 13.4235 13.8118 13.6409 13.6273ZM13.6409 13.6273C13.6166 13.6067 13.5934 13.5849 13.5712 13.5621C13.5934 13.5849 13.6166 13.6066 13.6409 13.6272C13.6409 13.6272 13.6409 13.6272 13.6409 13.6273ZM15.7487 16.6091C15.6467 16.5042 15.5863 16.3611 15.5863 16.2078V11.2154C15.5863 10.975 15.7348 10.7602 15.9583 10.6774L19.8748 9.22591C20.0011 9.17911 20.1397 9.17911 20.266 9.22591L24.1826 10.6774C24.2637 10.7075 24.3349 10.7549 24.3927 10.8146C24.4941 10.9195 24.5542 11.0621 24.5542 11.215V16.2075C24.5542 16.4455 24.4085 16.6587 24.1881 16.7432L20.2716 18.2447C20.1417 18.2945 19.9984 18.2945 19.8685 18.2447L15.952 16.7432C15.8737 16.7132 15.8049 16.6669 15.7487 16.6091ZM15.7487 16.6091C15.6465 16.5041 15.5859 16.3609 15.5859 16.2075V11.215C15.5859 10.9747 15.7344 10.7599 15.9579 10.677L19.8745 9.22554C20.0007 9.17874 20.1394 9.17874 20.2657 9.22554L24.1822 10.677C24.2635 10.7072 24.3348 10.7547 24.3927 10.8146C24.4943 10.9195 24.5546 11.0623 24.5546 11.2154V16.2078C24.5546 16.4458 24.4089 16.6591 24.1885 16.7436L20.2719 18.2451C20.1421 18.2949 19.9987 18.2949 19.8689 18.2451L15.9524 16.7436C15.8739 16.7135 15.805 16.6671 15.7487 16.6091ZM10.2518 3.67586C10.3534 3.78073 10.4137 3.92348 10.4137 4.0766V9.06904C10.4137 9.30705 10.268 9.52028 10.0476 9.60478L6.13103 11.1063C6.00121 11.1561 5.85782 11.1561 5.72801 11.1063L1.81146 9.60478C1.73304 9.57471 1.66407 9.52834 1.60776 9.47035C1.664 9.52817 1.73285 9.5744 1.8111 9.6044L5.72765 11.106C5.85746 11.1557 6.00085 11.1557 6.13067 11.106L10.0472 9.6044C10.2676 9.51991 10.4133 9.30668 10.4133 9.06867V4.07622C10.4133 3.92329 10.3532 3.78069 10.2518 3.67586ZM10.0417 3.53864C10.1228 3.56869 10.194 3.61613 10.2518 3.67586C10.1939 3.61596 10.1226 3.56838 10.0413 3.53826L6.12476 2.08675C5.99848 2.03995 5.85984 2.03995 5.73355 2.08675L1.81701 3.53826C1.59354 3.62108 1.445 3.83589 1.445 4.07622V9.06867C1.445 9.22216 1.5056 9.36535 1.60776 9.47035C1.50582 9.36539 1.44536 9.22236 1.44536 9.06904V4.0766C1.44536 3.83626 1.5939 3.62146 1.81737 3.53864L5.73392 2.08713C5.8602 2.04033 5.99884 2.04033 6.12512 2.08713L10.0417 3.53864ZM2.13523 4.16546L5.92952 2.75926L9.72344 4.16533V8.98083L5.92916 10.4355L2.13523 8.98097V4.16546ZM2.13523 8.9812V8.98097L2.13487 8.98083V4.16509L5.92916 2.75889L9.72344 4.16509V4.16533L9.72381 4.16546V8.9812L5.92952 10.4359L2.13523 8.9812ZM5.92952 2.98225L9.51722 4.31188V8.8365L5.92952 10.212L2.34182 8.8365V4.31188L5.92952 2.98225ZM3.37476 15.1162L6.96246 13.7865L10.5502 15.1162V19.6408L6.96246 21.0163L3.37476 19.6408V15.1162ZM10.7564 14.9696L10.7567 14.9698V19.7855L6.96246 21.2402L3.16817 19.7855V19.7853L6.9621 21.2398L10.7564 19.7851V14.9696ZM6.96246 13.5636L10.7564 14.9696V14.9694L6.9621 13.5632L3.16781 14.9694V19.7851L3.16817 19.7853V14.9698L6.96246 13.5636ZM16.2761 11.3042L20.0704 9.89805L23.8643 11.3041V16.1196L20.0701 17.5743L16.2761 16.1198V11.3042ZM16.2761 16.1198L16.2758 16.1196V11.3039L20.0701 9.89767L23.8643 11.3039V11.3041L23.8647 11.3042V16.12L20.0704 17.5747L16.2761 16.12V16.1198ZM20.0704 10.121L23.6581 11.4507V15.9753L20.0704 17.3508L16.4827 15.9753V11.4507L20.0704 10.121Z"/>
</mask>
<path fill-rule="evenodd" clip-rule="evenodd" d="M7.22899 12.6947C7.05691 12.631 6.86801 12.631 6.69592 12.6947L2.77938 14.1462C2.47484 14.2591 2.27171 14.5522 2.27171 14.8809V19.8733C2.27171 20.1989 2.47098 20.4898 2.77133 20.605L6.68787 22.1065C6.86478 22.1744 7.06014 22.1744 7.23705 22.1065L11.1536 20.605C11.4539 20.4898 11.6532 20.1989 11.6532 19.8733V18.7012H12.7552C13.4173 18.7012 13.9539 18.1571 13.9539 17.486V14.3992C13.9539 14.2214 14.0934 14.0766 14.2674 14.0711L14.2764 14.0712H15.3797V16.2078C15.3797 16.5333 15.5789 16.8243 15.8793 16.9394L19.7958 18.441C19.9727 18.5088 20.1681 18.5088 20.345 18.441L24.2615 16.9394C24.5619 16.8243 24.7612 16.5333 24.7612 16.2078V11.2154C24.7612 10.8867 24.558 10.5936 24.2535 10.4807L20.337 9.02921C20.1649 8.96544 19.976 8.96544 19.8039 9.02921L15.8873 10.4807C15.5828 10.5936 15.3797 10.8867 15.3797 11.2154V13.1842L14.2777 13.184L14.2674 13.184C14.0934 13.1786 13.9539 13.0338 13.9539 12.856V7.45407C13.9539 6.78294 13.4173 6.23887 12.7552 6.23887H10.6203V4.0766C10.6203 3.74789 10.4171 3.45481 10.1126 3.34194L6.19605 1.89043C6.02396 1.82665 5.83507 1.82665 5.66298 1.89043L1.74644 3.34194C1.4419 3.45481 1.23877 3.7479 1.23877 4.0766V9.06904C1.23877 9.39456 1.43804 9.68551 1.73839 9.80066L5.65493 11.3022C5.83184 11.3701 6.0272 11.3701 6.20411 11.3022L10.1206 9.80066C10.421 9.68551 10.6203 9.39456 10.6203 9.06904V7.12586H12.7552C12.934 7.12586 13.079 7.27281 13.079 7.45407V12.856C13.079 13.149 13.1814 13.4179 13.3516 13.6276C13.1814 13.8373 13.079 14.1062 13.079 14.3992V17.486C13.079 17.6673 12.934 17.8142 12.7552 17.8142H11.6532V14.8809C11.6532 14.5522 11.4501 14.2591 11.1455 14.1462L7.22899 12.6947ZM11.0805 20.4091C11.3009 20.3246 11.4466 20.1113 11.4466 19.8733V14.8809C11.4466 14.7278 11.3863 14.585 11.2848 14.4802C11.2269 14.4203 11.1555 14.3727 11.0742 14.3426L7.1577 12.8911C7.03142 12.8443 6.89278 12.8443 6.7665 12.8911L2.84995 14.3426C2.62648 14.4254 2.47794 14.6402 2.47794 14.8805V19.873C2.47794 20.0265 2.53854 20.1697 2.6407 20.2747C2.69701 20.3326 2.76598 20.379 2.8444 20.4091L6.76095 21.9106C6.89077 21.9604 7.03415 21.9604 7.16397 21.9106L11.0805 20.4091ZM2.4783 19.8733C2.4783 20.0267 2.53876 20.1697 2.6407 20.2747C2.69694 20.3325 2.76579 20.3787 2.84404 20.4087L6.76059 21.9103C6.89041 21.96 7.03379 21.96 7.16361 21.9103L11.0802 20.4087C11.3005 20.3242 11.4463 20.111 11.4463 19.873V14.8805C11.4463 14.7276 11.3861 14.585 11.2848 14.4802C11.2269 14.4204 11.1557 14.373 11.0746 14.3429L7.15806 12.8914C7.03178 12.8446 6.89314 12.8446 6.76686 12.8914L2.85031 14.3429C2.62684 14.4258 2.4783 14.6406 2.4783 14.8809V19.8733ZM13.7474 17.486C13.7474 18.0415 13.3032 18.4918 12.7552 18.4918H11.6134V18.4914H12.7549C13.3028 18.4914 13.747 18.0411 13.747 17.4856V14.3988C13.747 14.1061 13.9778 13.868 14.2649 13.8613L14.2773 13.8614H15.4192V13.3936H15.4196V13.8618H14.2777L14.2653 13.8617C13.9781 13.8684 13.7474 14.1065 13.7474 14.3992V17.486ZM13.9007 13.2341C13.9941 13.3296 14.1226 13.3898 14.2649 13.3931L14.2773 13.393L15.4192 13.3933V13.3936L14.2777 13.3934L14.2653 13.3935C14.1227 13.3902 13.9941 13.3298 13.9007 13.2341ZM13.4629 6.74913C13.6388 6.93062 13.7474 7.1795 13.7474 7.45407V12.856C13.7474 13.0034 13.8059 13.137 13.9007 13.2341C13.8057 13.1369 13.747 13.0032 13.747 12.8556V7.4537C13.747 7.17931 13.6386 6.93059 13.4629 6.74913ZM10.5804 6.91606H10.5801V6.44793H12.7549C13.0321 6.44793 13.2828 6.56323 13.4629 6.74913C13.2829 6.56345 13.0323 6.4483 12.7552 6.4483H10.5804V6.91606ZM13.1323 7.07601C13.0362 6.97748 12.9027 6.91644 12.7552 6.91644H10.5804V6.91606H12.7549C12.9025 6.91606 13.0361 6.97726 13.1323 7.07601ZM13.5712 13.5621C13.3944 13.3805 13.2852 13.131 13.2852 12.8556V7.4537C13.2852 7.30649 13.2268 7.1731 13.1323 7.07601C13.2271 7.17313 13.2856 7.30667 13.2856 7.45407V12.856C13.2856 13.0903 13.3646 13.3059 13.4971 13.4769C13.5202 13.5067 13.545 13.5351 13.5712 13.5621ZM13.6409 13.6273C13.641 13.6274 13.6411 13.6275 13.6413 13.6276C13.5882 13.6726 13.5399 13.7231 13.4971 13.7783C13.3646 13.9493 13.2856 14.1649 13.2856 14.3992V17.486C13.2856 17.7829 13.0481 18.0236 12.7552 18.0236H11.6134V18.4914H11.613V18.0233H12.7549C13.0478 18.0233 13.2852 17.7826 13.2852 17.4856V14.3988C13.2852 14.0889 13.4235 13.8118 13.6409 13.6273ZM13.6409 13.6273C13.6166 13.6067 13.5934 13.5849 13.5712 13.5621C13.5934 13.5849 13.6166 13.6066 13.6409 13.6272C13.6409 13.6272 13.6409 13.6272 13.6409 13.6273ZM15.7487 16.6091C15.6467 16.5042 15.5863 16.3611 15.5863 16.2078V11.2154C15.5863 10.975 15.7348 10.7602 15.9583 10.6774L19.8748 9.22591C20.0011 9.17911 20.1397 9.17911 20.266 9.22591L24.1826 10.6774C24.2637 10.7075 24.3349 10.7549 24.3927 10.8146C24.4941 10.9195 24.5542 11.0621 24.5542 11.215V16.2075C24.5542 16.4455 24.4085 16.6587 24.1881 16.7432L20.2716 18.2447C20.1417 18.2945 19.9984 18.2945 19.8685 18.2447L15.952 16.7432C15.8737 16.7132 15.8049 16.6669 15.7487 16.6091ZM15.7487 16.6091C15.6465 16.5041 15.5859 16.3609 15.5859 16.2075V11.215C15.5859 10.9747 15.7344 10.7599 15.9579 10.677L19.8745 9.22554C20.0007 9.17874 20.1394 9.17874 20.2657 9.22554L24.1822 10.677C24.2635 10.7072 24.3348 10.7547 24.3927 10.8146C24.4943 10.9195 24.5546 11.0623 24.5546 11.2154V16.2078C24.5546 16.4458 24.4089 16.6591 24.1885 16.7436L20.2719 18.2451C20.1421 18.2949 19.9987 18.2949 19.8689 18.2451L15.9524 16.7436C15.8739 16.7135 15.805 16.6671 15.7487 16.6091ZM10.2518 3.67586C10.3534 3.78073 10.4137 3.92348 10.4137 4.0766V9.06904C10.4137 9.30705 10.268 9.52028 10.0476 9.60478L6.13103 11.1063C6.00121 11.1561 5.85782 11.1561 5.72801 11.1063L1.81146 9.60478C1.73304 9.57471 1.66407 9.52834 1.60776 9.47035C1.664 9.52817 1.73285 9.5744 1.8111 9.6044L5.72765 11.106C5.85746 11.1557 6.00085 11.1557 6.13067 11.106L10.0472 9.6044C10.2676 9.51991 10.4133 9.30668 10.4133 9.06867V4.07622C10.4133 3.92329 10.3532 3.78069 10.2518 3.67586ZM10.0417 3.53864C10.1228 3.56869 10.194 3.61613 10.2518 3.67586C10.1939 3.61596 10.1226 3.56838 10.0413 3.53826L6.12476 2.08675C5.99848 2.03995 5.85984 2.03995 5.73355 2.08675L1.81701 3.53826C1.59354 3.62108 1.445 3.83589 1.445 4.07622V9.06867C1.445 9.22216 1.5056 9.36535 1.60776 9.47035C1.50582 9.36539 1.44536 9.22236 1.44536 9.06904V4.0766C1.44536 3.83626 1.5939 3.62146 1.81737 3.53864L5.73392 2.08713C5.8602 2.04033 5.99884 2.04033 6.12512 2.08713L10.0417 3.53864ZM2.13523 4.16546L5.92952 2.75926L9.72344 4.16533V8.98083L5.92916 10.4355L2.13523 8.98097V4.16546ZM2.13523 8.9812V8.98097L2.13487 8.98083V4.16509L5.92916 2.75889L9.72344 4.16509V4.16533L9.72381 4.16546V8.9812L5.92952 10.4359L2.13523 8.9812ZM5.92952 2.98225L9.51722 4.31188V8.8365L5.92952 10.212L2.34182 8.8365V4.31188L5.92952 2.98225ZM3.37476 15.1162L6.96246 13.7865L10.5502 15.1162V19.6408L6.96246 21.0163L3.37476 19.6408V15.1162ZM10.7564 14.9696L10.7567 14.9698V19.7855L6.96246 21.2402L3.16817 19.7855V19.7853L6.9621 21.2398L10.7564 19.7851V14.9696ZM6.96246 13.5636L10.7564 14.9696V14.9694L6.9621 13.5632L3.16781 14.9694V19.7851L3.16817 19.7853V14.9698L6.96246 13.5636ZM16.2761 11.3042L20.0704 9.89805L23.8643 11.3041V16.1196L20.0701 17.5743L16.2761 16.1198V11.3042ZM16.2761 16.1198L16.2758 16.1196V11.3039L20.0701 9.89767L23.8643 11.3039V11.3041L23.8647 11.3042V16.12L20.0704 17.5747L16.2761 16.12V16.1198ZM20.0704 10.121L23.6581 11.4507V15.9753L20.0704 17.3508L16.4827 15.9753V11.4507L20.0704 10.121Z" fill="#323232"/>
<path d="M6.69592 12.6947L6.59167 12.4134L6.59167 12.4134L6.69592 12.6947ZM7.22899 12.6947L7.12474 12.976H7.12474L7.22899 12.6947ZM2.77938 14.1462L2.88363 14.4275L2.88363 14.4275L2.77938 14.1462ZM2.77133 20.605L2.66393 20.8851H2.66393L2.77133 20.605ZM6.68787 22.1065L6.79527 21.8264H6.79526L6.68787 22.1065ZM7.23705 22.1065L7.12965 21.8264H7.12965L7.23705 22.1065ZM11.1536 20.605L11.261 20.8851H11.261L11.1536 20.605ZM11.6532 18.7012V18.4012H11.3532V18.7012H11.6532ZM14.2674 14.0711L14.2694 13.7709L14.258 13.7713L14.2674 14.0711ZM14.2764 14.0712L14.2744 14.3712H14.2764V14.0712ZM15.3797 14.0712H15.6797V13.7712H15.3797V14.0712ZM15.8793 16.9394L15.7719 17.2196L15.7719 17.2196L15.8793 16.9394ZM19.7958 18.441L19.6884 18.7211H19.6884L19.7958 18.441ZM20.345 18.441L20.4524 18.7211H20.4524L20.345 18.441ZM24.2615 16.9394L24.3689 17.2196L24.2615 16.9394ZM24.2535 10.4807L24.3577 10.1994L24.2535 10.4807ZM20.337 9.02921L20.2327 9.31052V9.31052L20.337 9.02921ZM19.8039 9.02921L19.9081 9.31052V9.31052L19.8039 9.02921ZM15.8873 10.4807L15.7831 10.1994L15.8873 10.4807ZM15.3797 13.1842L15.3796 13.4842L15.6797 13.4843V13.1842H15.3797ZM14.2777 13.184L14.2778 12.884L14.2759 12.884L14.2777 13.184ZM14.2674 13.184L14.258 13.4841L14.2692 13.484L14.2674 13.184ZM10.6203 6.23887H10.3203V6.53887H10.6203V6.23887ZM10.1126 3.34194L10.2169 3.06064L10.1126 3.34194ZM6.19605 1.89043L6.30031 1.60913L6.30031 1.60913L6.19605 1.89043ZM5.66298 1.89043L5.55873 1.60913L5.55873 1.60913L5.66298 1.89043ZM1.74644 3.34194L1.85069 3.62324H1.85069L1.74644 3.34194ZM1.73839 9.80066L1.63099 10.0808H1.63099L1.73839 9.80066ZM5.65493 11.3022L5.54753 11.5823H5.54754L5.65493 11.3022ZM6.20411 11.3022L6.3115 11.5823H6.3115L6.20411 11.3022ZM10.1206 9.80066L10.228 10.0808L10.1206 9.80066ZM10.6203 7.12586V6.82586H10.3203V7.12586H10.6203ZM13.3516 13.6276L13.5846 13.8166L13.7379 13.6276L13.5846 13.4386L13.3516 13.6276ZM11.6532 17.8142H11.3532V18.1142H11.6532V17.8142ZM11.1455 14.1462L11.2498 13.8649H11.2498L11.1455 14.1462ZM11.0805 20.4091L11.1879 20.6892H11.1879L11.0805 20.4091ZM11.0742 14.3426L11.1785 14.0613H11.1785L11.0742 14.3426ZM7.1577 12.8911L7.05345 13.1724L7.1577 12.8911ZM6.7665 12.8911L6.87075 13.1724H6.87075L6.7665 12.8911ZM2.84995 14.3426L2.9542 14.6239L2.9542 14.6239L2.84995 14.3426ZM2.8444 20.4091L2.73701 20.6892H2.73701L2.8444 20.4091ZM6.76095 21.9106L6.65355 22.1908H6.65355L6.76095 21.9106ZM7.16397 21.9106L7.27136 22.1908L7.16397 21.9106ZM2.84404 20.4087L2.95144 20.1286H2.95144L2.84404 20.4087ZM6.76059 21.9103L6.65319 22.1904H6.65319L6.76059 21.9103ZM7.16361 21.9103L7.05621 21.6301L7.16361 21.9103ZM11.0802 20.4087L11.1875 20.6888H11.1875L11.0802 20.4087ZM11.0746 14.3429L11.1789 14.0616L11.0746 14.3429ZM7.15806 12.8914L7.05381 13.1727H7.05381L7.15806 12.8914ZM6.76686 12.8914L6.6626 12.6101L6.6626 12.6101L6.76686 12.8914ZM2.85031 14.3429L2.95456 14.6242L2.95456 14.6242L2.85031 14.3429ZM11.6134 18.4918H11.3134V18.7918H11.6134V18.4918ZM14.2649 13.8613L14.2668 13.5612L14.258 13.5614L14.2649 13.8613ZM14.2773 13.8614L14.2755 14.1614H14.2773V13.8614ZM15.4192 13.8614V14.1614H15.7192V13.8614H15.4192ZM15.4196 13.3936H15.7196V13.0936H15.4196V13.3936ZM15.4196 13.8618V14.1618H15.7196V13.8618H15.4196ZM14.2777 13.8618L14.2758 14.1618H14.2777V13.8618ZM14.2653 13.8617L14.2672 13.5616L14.2583 13.5618L14.2653 13.8617ZM14.2649 13.3931L14.258 13.6932L14.2668 13.6931L14.2649 13.3931ZM14.2773 13.393L14.2774 13.093L14.2755 13.0931L14.2773 13.393ZM15.4192 13.3933H15.7192V13.0933L15.4192 13.0933L15.4192 13.3933ZM14.2777 13.3934L14.2778 13.0934L14.2758 13.0934L14.2777 13.3934ZM14.2653 13.3935L14.2583 13.6935L14.2672 13.6935L14.2653 13.3935ZM10.5801 6.91606H10.2801V7.21606H10.5801V6.91606ZM10.5801 6.44793V6.14793H10.2801V6.44793H10.5801ZM10.5804 6.4483V6.1483H10.2804V6.4483H10.5804ZM10.5804 6.91644H10.2804V7.21644H10.5804V6.91644ZM13.4971 13.4769L13.7343 13.2931L13.7343 13.2931L13.4971 13.4769ZM13.6413 13.6276L13.8354 13.8563L14.1058 13.6268L13.8346 13.3982L13.6413 13.6276ZM13.4971 13.7783L13.26 13.5945L13.26 13.5945L13.4971 13.7783ZM11.6134 18.0236V17.7236H11.3134V18.0236H11.6134ZM11.613 18.4914H11.313V18.7914H11.613V18.4914ZM11.613 18.0233V17.7233H11.313V18.0233H11.613ZM13.6409 13.6272L13.8347 13.8562L14.105 13.6276L13.835 13.3985L13.6409 13.6272ZM15.9583 10.6774L15.854 10.3961L15.9583 10.6774ZM19.8748 9.22591L19.7706 8.94461L19.7706 8.94461L19.8748 9.22591ZM20.266 9.22591L20.3703 8.94461V8.94461L20.266 9.22591ZM24.1826 10.6774L24.2868 10.3961L24.1826 10.6774ZM24.1881 16.7432L24.2955 17.0233L24.1881 16.7432ZM20.2716 18.2447L20.1642 17.9646L20.1642 17.9646L20.2716 18.2447ZM19.8685 18.2447L19.9759 17.9646L19.9759 17.9646L19.8685 18.2447ZM15.952 16.7432L16.0594 16.4631H16.0594L15.952 16.7432ZM15.9579 10.677L15.8537 10.3957L15.9579 10.677ZM19.8745 9.22554L19.9787 9.50684L19.8745 9.22554ZM20.2657 9.22554L20.1614 9.50684L20.2657 9.22554ZM24.1822 10.677L24.0779 10.9584L24.1822 10.677ZM24.1885 16.7436L24.0811 16.4634H24.0811L24.1885 16.7436ZM20.2719 18.2451L20.3793 18.5252H20.3793L20.2719 18.2451ZM19.8689 18.2451L19.7615 18.5252H19.7615L19.8689 18.2451ZM15.9524 16.7436L16.0598 16.4634L15.9524 16.7436ZM10.0476 9.60478L9.94018 9.32466L10.0476 9.60478ZM6.13103 11.1063L6.02363 10.8262L6.02363 10.8262L6.13103 11.1063ZM5.72801 11.1063L5.8354 10.8262L5.8354 10.8262L5.72801 11.1063ZM1.81146 9.60478L1.70407 9.88489H1.70407L1.81146 9.60478ZM1.8111 9.6044L1.9185 9.32428L1.8111 9.6044ZM5.72765 11.106L5.62025 11.3861H5.62025L5.72765 11.106ZM6.13067 11.106L6.23806 11.3861H6.23806L6.13067 11.106ZM10.0472 9.6044L9.93982 9.32428L10.0472 9.6044ZM10.0417 3.53864L9.93741 3.81994L10.0417 3.53864ZM10.0413 3.53826L9.93705 3.81957L10.0413 3.53826ZM6.12476 2.08675L6.22901 1.80545V1.80545L6.12476 2.08675ZM5.73355 2.08675L5.83781 2.36806V2.36806L5.73355 2.08675ZM1.81701 3.53826L1.92126 3.81957L1.92126 3.81957L1.81701 3.53826ZM1.81737 3.53864L1.92162 3.81994H1.92162L1.81737 3.53864ZM5.73392 2.08713L5.83817 2.36843L5.73392 2.08713ZM6.12512 2.08713L6.22937 1.80583L6.12512 2.08713ZM5.92952 2.75926L6.03377 2.47796L5.92952 2.43932L5.82526 2.47796L5.92952 2.75926ZM2.13523 4.16546L2.03097 3.88416L1.83523 3.95671V4.16546H2.13523ZM9.72344 8.98083L9.83084 9.26095L10.0234 9.18711V8.98083H9.72344ZM5.92916 10.4355L5.82176 10.7156L5.92916 10.7568L6.03655 10.7156L5.92916 10.4355ZM2.13523 8.9812H1.83523V9.18748L2.02783 9.26132L2.13523 8.9812ZM2.13487 8.98083H1.83487V9.18703L2.02738 9.26091L2.13487 8.98083ZM2.13487 4.16509L2.03061 3.88379L1.83487 3.95633V4.16509H2.13487ZM5.92916 2.75889L6.03341 2.47759L5.92916 2.43895L5.8249 2.47759L5.92916 2.75889ZM9.72344 4.16509H10.0234V3.95633L9.8277 3.88379L9.72344 4.16509ZM9.72381 4.16546H10.0238V3.95673L9.82808 3.88417L9.72381 4.16546ZM9.72381 8.9812L9.8312 9.26132L10.0238 9.18748V8.9812H9.72381ZM5.92952 10.4359L5.82212 10.716L5.92952 10.7572L6.03691 10.716L5.92952 10.4359ZM9.51722 4.31188H9.81722V4.10313L9.62147 4.03058L9.51722 4.31188ZM5.92952 2.98225L6.03377 2.70094L5.92952 2.66231L5.82526 2.70094L5.92952 2.98225ZM9.51722 8.8365L9.62461 9.11662L9.81722 9.04278V8.8365H9.51722ZM5.92952 10.212L5.82212 10.4921L5.92952 10.5333L6.03691 10.4921L5.92952 10.212ZM2.34182 8.8365H2.04182V9.04278L2.23442 9.11662L2.34182 8.8365ZM2.34182 4.31188L2.23756 4.03058L2.04182 4.10313V4.31188H2.34182ZM6.96246 13.7865L7.06671 13.5052L6.96246 13.4666L6.8582 13.5052L6.96246 13.7865ZM3.37476 15.1162L3.2705 14.8349L3.07476 14.9074V15.1162H3.37476ZM10.5502 15.1162H10.8502V14.9074L10.6544 14.8349L10.5502 15.1162ZM10.5502 19.6408L10.6576 19.9209L10.8502 19.8471V19.6408H10.5502ZM6.96246 21.0163L6.85506 21.2964L6.96246 21.3376L7.06985 21.2964L6.96246 21.0163ZM3.37476 19.6408H3.07476V19.8471L3.26736 19.9209L3.37476 19.6408ZM10.7567 14.9698H11.0567V14.761L10.8609 14.6884L10.7567 14.9698ZM10.7567 19.7855L10.8641 20.0656L11.0567 19.9918V19.7855H10.7567ZM6.96246 21.2402L6.85506 21.5203L6.96246 21.5615L7.06985 21.5203L6.96246 21.2402ZM3.16817 19.7855H2.86817V19.9918L3.06077 20.0656L3.16817 19.7855ZM6.9621 21.2398L6.8547 21.5199L6.9621 21.5611L7.06949 21.5199L6.9621 21.2398ZM10.7564 19.7851L10.8638 20.0653L11.0564 19.9914V19.7851H10.7564ZM6.96246 13.5636L7.06671 13.2823L6.96246 13.2436L6.8582 13.2823L6.96246 13.5636ZM10.7564 14.9694H11.0564V14.7606L10.8606 14.6881L10.7564 14.9694ZM6.9621 13.5632L7.06635 13.2819L6.9621 13.2432L6.85784 13.2819L6.9621 13.5632ZM3.16781 14.9694L3.06356 14.6881L2.86781 14.7606V14.9694H3.16781ZM3.16781 19.7851H2.86781V19.9919L3.06098 20.0655L3.16781 19.7851ZM3.16817 14.9698L3.06392 14.6885L2.86817 14.761V14.9698H3.16817ZM20.0704 9.89805L20.1747 9.61674L20.0704 9.57811L19.9662 9.61674L20.0704 9.89805ZM16.2761 11.3042L16.1719 11.0229L15.9761 11.0955V11.3042H16.2761ZM23.8643 16.1196L23.9717 16.3997L24.1643 16.3259V16.1196H23.8643ZM20.0701 17.5743L19.9627 17.8544L20.0701 17.8956L20.1775 17.8544L20.0701 17.5743ZM16.2758 16.1196H15.9758V16.3259L16.1683 16.3997L16.2758 16.1196ZM16.2758 11.3039L16.1715 11.0226L15.9758 11.0951V11.3039H16.2758ZM20.0701 9.89767L20.1743 9.61637L20.0701 9.57773L19.9658 9.61637L20.0701 9.89767ZM23.8643 11.3039H24.1643V11.0951L23.9686 11.0226L23.8643 11.3039ZM23.8647 11.3042H24.1647V11.0954L23.9689 11.0229L23.8647 11.3042ZM23.8647 16.12L23.9721 16.4001L24.1647 16.3263V16.12H23.8647ZM20.0704 17.5747L19.963 17.8548L20.0704 17.896L20.1778 17.8548L20.0704 17.5747ZM16.2761 16.12H15.9761V16.3263L16.1687 16.4001L16.2761 16.12ZM23.6581 11.4507H23.9581V11.2419L23.7624 11.1694L23.6581 11.4507ZM20.0704 10.121L20.1747 9.83973L20.0704 9.80109L19.9662 9.83973L20.0704 10.121ZM23.6581 15.9753L23.7655 16.2554L23.9581 16.1816V15.9753H23.6581ZM20.0704 17.3508L19.963 17.6309L20.0704 17.6721L20.1778 17.6309L20.0704 17.3508ZM16.4827 15.9753H16.1827V16.1816L16.3753 16.2554L16.4827 15.9753ZM16.4827 11.4507L16.3785 11.1694L16.1827 11.2419V11.4507H16.4827ZM6.80018 12.976C6.905 12.9372 7.01992 12.9372 7.12474 12.976L7.33325 12.4134C7.09389 12.3247 6.83102 12.3247 6.59167 12.4134L6.80018 12.976ZM2.88363 14.4275L6.80018 12.976L6.59167 12.4134L2.67512 13.8649L2.88363 14.4275ZM2.57171 14.8809C2.57171 14.6763 2.69806 14.4963 2.88363 14.4275L2.67513 13.8649C2.25162 14.0219 1.97171 14.4281 1.97171 14.8809H2.57171ZM2.57171 19.8733V14.8809H1.97171V19.8733H2.57171ZM2.87872 20.3248C2.69566 20.2547 2.57171 20.076 2.57171 19.8733H1.97171C1.97171 20.3217 2.2463 20.725 2.66393 20.8851L2.87872 20.3248ZM6.79526 21.8264L2.87872 20.3248L2.66393 20.8851L6.58048 22.3866L6.79526 21.8264ZM7.12965 21.8264C7.02189 21.8677 6.90303 21.8677 6.79527 21.8264L6.58048 22.3866C6.82653 22.481 7.09839 22.481 7.34444 22.3866L7.12965 21.8264ZM11.0462 20.3248L7.12965 21.8264L7.34444 22.3866L11.261 20.8851L11.0462 20.3248ZM11.3532 19.8733C11.3532 20.076 11.2293 20.2547 11.0462 20.3248L11.261 20.8851C11.6786 20.725 11.9532 20.3217 11.9532 19.8733H11.3532ZM11.3532 18.7012V19.8733H11.9532V18.7012H11.3532ZM12.7552 18.4012H11.6532V19.0012H12.7552V18.4012ZM13.6539 17.486C13.6539 17.9953 13.2477 18.4012 12.7552 18.4012V19.0012C13.5868 19.0012 14.2539 18.319 14.2539 17.486H13.6539ZM13.6539 14.3992V17.486H14.2539V14.3992H13.6539ZM14.258 13.7713C13.9188 13.7819 13.6539 14.0626 13.6539 14.3992H14.2539C14.2539 14.3802 14.268 14.3713 14.2768 14.371L14.258 13.7713ZM14.2784 13.7712L14.2694 13.7711L14.2654 14.3711L14.2744 14.3712L14.2784 13.7712ZM15.3797 13.7712H14.2764V14.3712H15.3797V13.7712ZM15.6797 16.2078V14.0712H15.0797V16.2078H15.6797ZM15.9867 16.6593C15.8036 16.5891 15.6797 16.4105 15.6797 16.2078H15.0797C15.0797 16.6562 15.3543 17.0594 15.7719 17.2196L15.9867 16.6593ZM19.9032 18.1609L15.9867 16.6593L15.7719 17.2196L19.6884 18.7211L19.9032 18.1609ZM20.2376 18.1609C20.1298 18.2022 20.011 18.2022 19.9032 18.1609L19.6884 18.7211C19.9345 18.8155 20.2063 18.8155 20.4524 18.7211L20.2376 18.1609ZM24.1542 16.6593L20.2376 18.1609L20.4524 18.7211L24.3689 17.2196L24.1542 16.6593ZM24.4612 16.2078C24.4612 16.4105 24.3372 16.5891 24.1542 16.6593L24.3689 17.2196C24.7866 17.0594 25.0612 16.6562 25.0612 16.2078H24.4612ZM24.4612 11.2154V16.2078H25.0612V11.2154H24.4612ZM24.1492 10.762C24.3348 10.8308 24.4612 11.0108 24.4612 11.2154H25.0612C25.0612 10.7626 24.7812 10.3564 24.3577 10.1994L24.1492 10.762ZM20.2327 9.31052L24.1492 10.762L24.3577 10.1994L20.4412 8.74791L20.2327 9.31052ZM19.9081 9.31052C20.013 9.27167 20.1279 9.27167 20.2327 9.31052L20.4412 8.74791C20.2018 8.6592 19.939 8.65921 19.6996 8.74791L19.9081 9.31052ZM15.9916 10.762L19.9081 9.31052L19.6996 8.74791L15.7831 10.1994L15.9916 10.762ZM15.6797 11.2154C15.6797 11.0108 15.806 10.8308 15.9916 10.762L15.7831 10.1994C15.3596 10.3564 15.0797 10.7626 15.0797 11.2154H15.6797ZM15.6797 13.1842V11.2154H15.0797V13.1842H15.6797ZM14.2777 13.484L15.3796 13.4842L15.3797 12.8842L14.2778 12.884L14.2777 13.484ZM14.2692 13.484L14.2796 13.484L14.2759 12.884L14.2655 12.8841L14.2692 13.484ZM13.6539 12.856C13.6539 13.1925 13.9188 13.4732 14.258 13.4839L14.2768 12.8842C14.268 12.8839 14.2539 12.875 14.2539 12.856H13.6539ZM13.6539 7.45407V12.856H14.2539V7.45407H13.6539ZM12.7552 6.53887C13.2477 6.53887 13.6539 6.94475 13.6539 7.45407H14.2539C14.2539 6.62113 13.5868 5.93887 12.7552 5.93887V6.53887ZM10.6203 6.53887H12.7552V5.93887H10.6203V6.53887ZM10.3203 4.0766V6.23887H10.9203V4.0766H10.3203ZM10.0083 3.62324C10.1939 3.69202 10.3203 3.87197 10.3203 4.0766H10.9203C10.9203 3.62382 10.6404 3.21759 10.2169 3.06064L10.0083 3.62324ZM6.0918 2.17173L10.0083 3.62324L10.2169 3.06064L6.30031 1.60913L6.0918 2.17173ZM5.76723 2.17173C5.87206 2.13289 5.98698 2.13289 6.0918 2.17173L6.30031 1.60913C6.06095 1.52042 5.79808 1.52042 5.55873 1.60913L5.76723 2.17173ZM1.85069 3.62324L5.76724 2.17173L5.55873 1.60913L1.64218 3.06064L1.85069 3.62324ZM1.53877 4.0766C1.53877 3.87197 1.66512 3.69202 1.85069 3.62324L1.64218 3.06064C1.21868 3.21759 0.93877 3.62382 0.93877 4.0766H1.53877ZM1.53877 9.06904V4.0766H0.93877V9.06904H1.53877ZM1.84578 9.52055C1.66272 9.45036 1.53877 9.27168 1.53877 9.06904H0.93877C0.93877 9.51744 1.21336 9.92067 1.63099 10.0808L1.84578 9.52055ZM5.76232 11.0221L1.84578 9.52055L1.63099 10.0808L5.54753 11.5823L5.76232 11.0221ZM6.09671 11.0221C5.98895 11.0634 5.87009 11.0634 5.76232 11.0221L5.54754 11.5823C5.79359 11.6767 6.06545 11.6767 6.3115 11.5823L6.09671 11.0221ZM10.0133 9.52055L6.09671 11.0221L6.3115 11.5823L10.228 10.0808L10.0133 9.52055ZM10.3203 9.06904C10.3203 9.27167 10.1963 9.45036 10.0133 9.52055L10.228 10.0808C10.6457 9.92067 10.9203 9.51744 10.9203 9.06904H10.3203ZM10.3203 7.12586V9.06904H10.9203V7.12586H10.3203ZM12.7552 6.82586H10.6203V7.42586H12.7552V6.82586ZM13.379 7.45407C13.379 7.111 13.1036 6.82586 12.7552 6.82586V7.42586C12.7645 7.42586 12.779 7.43462 12.779 7.45407H13.379ZM13.379 12.856V7.45407H12.779V12.856H13.379ZM13.5846 13.4386C13.4564 13.2806 13.379 13.078 13.379 12.856H12.779C12.779 13.22 12.9065 13.5551 13.1187 13.8166L13.5846 13.4386ZM13.379 14.3992C13.379 14.1772 13.4564 13.9746 13.5846 13.8166L13.1187 13.4386C12.9065 13.7001 12.779 14.0352 12.779 14.3992H13.379ZM13.379 17.486V14.3992H12.779V17.486H13.379ZM12.7552 18.1142C13.1036 18.1142 13.379 17.8291 13.379 17.486H12.779C12.779 17.5055 12.7645 17.5142 12.7552 17.5142V18.1142ZM11.6532 18.1142H12.7552V17.5142H11.6532V18.1142ZM11.3532 14.8809V17.8142H11.9532V14.8809H11.3532ZM11.0413 14.4275C11.2269 14.4963 11.3532 14.6763 11.3532 14.8809H11.9532C11.9532 14.4281 11.6733 14.0219 11.2498 13.8649L11.0413 14.4275ZM7.12474 12.976L11.0413 14.4275L11.2498 13.8649L7.33325 12.4134L7.12474 12.976ZM11.1466 19.8733C11.1466 19.9885 11.0762 20.0894 10.9731 20.129L11.1879 20.6892C11.5256 20.5597 11.7466 20.2342 11.7466 19.8733H11.1466ZM11.1466 14.8809V19.8733H11.7466V14.8809H11.1466ZM11.0693 14.6889C11.1176 14.7388 11.1466 14.8071 11.1466 14.8809H11.7466C11.7466 14.6485 11.655 14.4313 11.5003 14.2715L11.0693 14.6889ZM11.5005 14.2717C11.4121 14.1802 11.3029 14.1074 11.1785 14.0613L10.97 14.6239C11.0081 14.638 11.0417 14.6603 11.0691 14.6887L11.5005 14.2717ZM11.1785 14.0613L7.26195 12.6098L7.05345 13.1724L10.97 14.6239L11.1785 14.0613ZM7.26195 12.6098C7.06841 12.538 6.85579 12.538 6.66224 12.6098L6.87075 13.1724C6.92976 13.1505 6.99443 13.1505 7.05345 13.1724L7.26195 12.6098ZM6.66224 12.6098L2.7457 14.0613L2.9542 14.6239L6.87075 13.1724L6.66224 12.6098ZM2.7457 14.0613C2.40324 14.1882 2.17794 14.5161 2.17794 14.8805H2.77794C2.77794 14.7642 2.84972 14.6626 2.9542 14.6239L2.7457 14.0613ZM2.17794 14.8805V19.873H2.77794V14.8805H2.17794ZM2.17794 19.873C2.17794 20.106 2.27 20.3238 2.42567 20.4839L2.85572 20.0655C2.80708 20.0155 2.77794 19.9469 2.77794 19.873H2.17794ZM2.9518 20.129C2.91497 20.1148 2.88256 20.0931 2.85591 20.0656L2.42548 20.4837C2.51146 20.5722 2.61699 20.6432 2.73701 20.6892L2.9518 20.129ZM6.86834 21.6305L2.9518 20.129L2.73701 20.6892L6.65355 22.1908L6.86834 21.6305ZM7.05657 21.6305C6.9959 21.6538 6.92902 21.6538 6.86834 21.6305L6.65355 22.1908C6.85251 22.267 7.0724 22.267 7.27136 22.1908L7.05657 21.6305ZM10.9731 20.129L7.05657 21.6305L7.27136 22.1908L11.1879 20.6892L10.9731 20.129ZM2.85591 20.0656C2.80738 20.0157 2.7783 19.9472 2.7783 19.8733H2.1783C2.1783 20.1061 2.27015 20.3237 2.42548 20.4837L2.85591 20.0656ZM2.42567 20.4839C2.51155 20.5721 2.61689 20.6429 2.73665 20.6888L2.95144 20.1286C2.91468 20.1145 2.88234 20.0928 2.85572 20.0655L2.42567 20.4839ZM2.73665 20.6888L6.65319 22.1904L6.86798 21.6301L2.95144 20.1286L2.73665 20.6888ZM6.65319 22.1904C6.85215 22.2667 7.07204 22.2667 7.271 22.1904L7.05621 21.6301C6.99554 21.6534 6.92866 21.6534 6.86798 21.6301L6.65319 22.1904ZM7.271 22.1904L11.1875 20.6888L10.9728 20.1286L7.05621 21.6301L7.271 22.1904ZM11.1875 20.6888C11.5252 20.5593 11.7463 20.2338 11.7463 19.873H11.1463C11.1463 19.9881 11.0758 20.0891 10.9728 20.1286L11.1875 20.6888ZM11.7463 19.873V14.8805H11.1463V19.873H11.7463ZM11.7463 14.8805C11.7463 14.6484 11.6549 14.4314 11.5005 14.2717L11.0691 14.6887C11.1173 14.7386 11.1463 14.8068 11.1463 14.8805H11.7463ZM10.9704 14.6242C11.0084 14.6384 11.0419 14.6606 11.0693 14.6889L11.5003 14.2715C11.412 14.1803 11.303 14.1076 11.1789 14.0616L10.9704 14.6242ZM7.05381 13.1727L10.9704 14.6242L11.1789 14.0616L7.26231 12.6101L7.05381 13.1727ZM6.87111 13.1727C6.93013 13.1509 6.99479 13.1509 7.05381 13.1727L7.26232 12.6101C7.06876 12.5384 6.85615 12.5384 6.6626 12.6101L6.87111 13.1727ZM2.95456 14.6242L6.87111 13.1727L6.6626 12.6101L2.74606 14.0616L2.95456 14.6242ZM2.7783 14.8809C2.7783 14.7646 2.85008 14.663 2.95456 14.6242L2.74606 14.0616C2.4036 14.1886 2.1783 14.5165 2.1783 14.8809H2.7783ZM2.7783 19.8733V14.8809H2.1783V19.8733H2.7783ZM12.7552 18.7918C13.4727 18.7918 14.0474 18.2033 14.0474 17.486H13.4474C13.4474 17.8797 13.1336 18.1918 12.7552 18.1918V18.7918ZM11.6134 18.7918H12.7552V18.1918H11.6134V18.7918ZM11.3134 18.4914V18.4918H11.9134V18.4914H11.3134ZM12.7549 18.1914H11.6134V18.7914H12.7549V18.1914ZM13.447 17.4856C13.447 17.8793 13.1333 18.1914 12.7549 18.1914V18.7914C13.4723 18.7914 14.047 18.2029 14.047 17.4856H13.447ZM13.447 14.3988V17.4856H14.047V14.3988H13.447ZM14.258 13.5614C13.8045 13.572 13.447 13.9465 13.447 14.3988H14.047C14.047 14.2657 14.151 14.1641 14.2719 14.1612L14.258 13.5614ZM14.2792 13.5614L14.2668 13.5613L14.2631 14.1613L14.2755 14.1614L14.2792 13.5614ZM15.4192 13.5614H14.2773V14.1614H15.4192V13.5614ZM15.1192 13.3936V13.8614H15.7192V13.3936H15.1192ZM15.4196 13.0936H15.4192V13.6936H15.4196V13.0936ZM15.7196 13.8618V13.3936H15.1196V13.8618H15.7196ZM14.2777 14.1618H15.4196V13.5618H14.2777V14.1618ZM14.2634 14.1617L14.2758 14.1618L14.2796 13.5618L14.2672 13.5617L14.2634 14.1617ZM14.0474 14.3992C14.0474 14.2661 14.1514 14.1644 14.2723 14.1616L14.2583 13.5618C13.8049 13.5723 13.4474 13.9469 13.4474 14.3992H14.0474ZM14.0474 17.486V14.3992H13.4474V17.486H14.0474ZM13.6861 13.4438C13.8317 13.5927 14.0336 13.6878 14.258 13.693L14.2719 13.0932C14.2115 13.0918 14.1564 13.0666 14.1152 13.0244L13.6861 13.4438ZM14.2668 13.6931L14.2792 13.693L14.2755 13.0931L14.2631 13.0931L14.2668 13.6931ZM14.2773 13.693L15.4191 13.6933L15.4192 13.0933L14.2774 13.093L14.2773 13.693ZM15.1192 13.3933V13.3936H15.7192V13.3933H15.1192ZM15.4192 13.0936L14.2778 13.0934L14.2776 13.6934L15.4191 13.6936L15.4192 13.0936ZM14.2758 13.0934L14.2634 13.0935L14.2672 13.6935L14.2796 13.6934L14.2758 13.0934ZM14.2723 13.0936C14.2118 13.0922 14.1567 13.0669 14.1154 13.0246L13.6859 13.4436C13.8315 13.5928 14.0337 13.6882 14.2583 13.6934L14.2723 13.0936ZM14.0474 7.45407C14.0474 7.09901 13.9067 6.77593 13.6783 6.54031L13.2475 6.95794C13.3709 7.08531 13.4474 7.25998 13.4474 7.45407H14.0474ZM14.0474 12.856V7.45407H13.4474V12.856H14.0474ZM14.1154 13.0246C14.0735 12.9816 14.0474 12.9226 14.0474 12.856H13.4474C13.4474 13.0843 13.5383 13.2923 13.6859 13.4436L14.1154 13.0246ZM13.447 12.8556C13.447 13.0842 13.5382 13.2925 13.6861 13.4438L14.1152 13.0244C14.0732 12.9814 14.047 12.9223 14.047 12.8556H13.447ZM13.447 7.4537V12.8556H14.047V7.4537H13.447ZM13.2474 6.95783C13.3707 7.08518 13.447 7.25974 13.447 7.4537H14.047C14.047 7.09888 13.9065 6.776 13.6784 6.54042L13.2474 6.95783ZM10.5804 6.61606H10.5801V7.21606H10.5804V6.61606ZM10.8801 6.91606V6.44793H10.2801V6.91606H10.8801ZM10.5801 6.74793H12.7549V6.14793H10.5801V6.74793ZM12.7549 6.74793C12.947 6.74793 13.1211 6.82741 13.2474 6.95783L13.6784 6.54042C13.4446 6.29906 13.1173 6.14793 12.7549 6.14793V6.74793ZM13.6783 6.54031C13.4445 6.29922 13.1174 6.1483 12.7552 6.1483V6.7483C12.9472 6.7483 13.1212 6.82768 13.2475 6.95794L13.6783 6.54031ZM12.7552 6.1483H10.5804V6.7483H12.7552V6.1483ZM10.2804 6.4483V6.91606H10.8804V6.4483H10.2804ZM12.7552 7.21644C12.818 7.21644 12.8751 7.24201 12.9176 7.28551L13.347 6.8665C13.1972 6.71295 12.9875 6.61644 12.7552 6.61644V7.21644ZM10.5804 7.21644H12.7552V6.61644H10.5804V7.21644ZM10.2804 6.91606V6.91644H10.8804V6.91606H10.2804ZM12.7549 6.61606H10.5804V7.21606H12.7549V6.61606ZM13.3472 6.86671C13.1974 6.71283 12.9874 6.61606 12.7549 6.61606V7.21606C12.8177 7.21606 12.8749 7.24169 12.9174 7.28531L13.3472 6.86671ZM13.7861 13.3528C13.662 13.2254 13.5852 13.0503 13.5852 12.8556H12.9852C12.9852 13.2117 13.1267 13.5356 13.3562 13.7714L13.7861 13.3528ZM13.5852 12.8556V7.4537H12.9852V12.8556H13.5852ZM13.5852 7.4537C13.5852 7.22576 13.4945 7.01797 13.3472 6.86671L12.9174 7.28531C12.9592 7.32823 12.9852 7.38722 12.9852 7.4537H13.5852ZM12.9176 7.28551C12.9595 7.32845 12.9856 7.3875 12.9856 7.45407H13.5856C13.5856 7.22584 13.4947 7.01781 13.347 6.8665L12.9176 7.28551ZM12.9856 7.45407V12.856H13.5856V7.45407H12.9856ZM12.9856 12.856C12.9856 13.1588 13.088 13.4387 13.26 13.6607L13.7343 13.2931C13.6413 13.1731 13.5856 13.0218 13.5856 12.856H12.9856ZM13.26 13.6607C13.29 13.6993 13.3221 13.7363 13.3561 13.7713L13.7862 13.3529C13.7678 13.334 13.7505 13.3141 13.7343 13.2931L13.26 13.6607ZM13.4466 13.8558C13.4468 13.856 13.4473 13.8565 13.4479 13.857L13.8346 13.3982L13.8352 13.3987L13.4466 13.8558ZM13.4472 13.3989C13.3782 13.4574 13.3155 13.5229 13.26 13.5945L13.7343 13.9621C13.7643 13.9233 13.7982 13.8879 13.8354 13.8563L13.4472 13.3989ZM13.26 13.5945C13.088 13.8165 12.9856 14.0964 12.9856 14.3992H13.5856C13.5856 14.2334 13.6413 14.082 13.7343 13.9621L13.26 13.5945ZM12.9856 14.3992V17.486H13.5856V14.3992H12.9856ZM12.9856 17.486C12.9856 17.6211 12.8786 17.7236 12.7552 17.7236V18.3236C13.2177 18.3236 13.5856 17.9447 13.5856 17.486H12.9856ZM12.7552 17.7236H11.6134V18.3236H12.7552V17.7236ZM11.3134 18.0236V18.4914H11.9134V18.0236H11.3134ZM11.6134 18.1914H11.613V18.7914H11.6134V18.1914ZM11.913 18.4914V18.0233H11.313V18.4914H11.913ZM11.613 18.3233H12.7549V17.7233H11.613V18.3233ZM12.7549 18.3233C13.2173 18.3233 13.5852 17.9444 13.5852 17.4856H12.9852C12.9852 17.6208 12.8782 17.7233 12.7549 17.7233V18.3233ZM13.5852 17.4856V14.3988H12.9852V17.4856H13.5852ZM13.5852 14.3988C13.5852 14.1799 13.6825 13.9854 13.835 13.856L13.4467 13.3985C13.1644 13.6381 12.9852 13.9979 12.9852 14.3988H13.5852ZM13.3561 13.7713C13.3849 13.8009 13.4151 13.8291 13.4466 13.8559L13.8351 13.3986C13.8181 13.3842 13.8018 13.369 13.7862 13.3529L13.3561 13.7713ZM13.835 13.3985C13.818 13.3841 13.8017 13.3688 13.7861 13.3528L13.3562 13.7714C13.385 13.801 13.4153 13.8292 13.4468 13.856L13.835 13.3985ZM13.8346 13.8563L13.8347 13.8562L13.4471 13.3982L13.4471 13.3982L13.8346 13.8563ZM15.2863 16.2078C15.2863 16.4406 15.3781 16.6582 15.5334 16.8181L15.9639 16.4001C15.9153 16.3502 15.8863 16.2817 15.8863 16.2078H15.2863ZM15.2863 11.2154V16.2078H15.8863V11.2154H15.2863ZM15.854 10.3961C15.5116 10.523 15.2863 10.851 15.2863 11.2154H15.8863C15.8863 11.0991 15.958 10.9974 16.0625 10.9587L15.854 10.3961ZM19.7706 8.94461L15.854 10.3961L16.0625 10.9587L19.9791 9.50721L19.7706 8.94461ZM20.3703 8.94461C20.1767 8.87288 19.9641 8.87288 19.7706 8.94461L19.9791 9.50721C20.0381 9.48534 20.1028 9.48534 20.1618 9.50721L20.3703 8.94461ZM24.2868 10.3961L20.3703 8.94461L20.1618 9.50721L24.0783 10.9587L24.2868 10.3961ZM24.6082 10.6059C24.5199 10.5148 24.4109 10.4421 24.2868 10.3961L24.0783 10.9587C24.1164 10.9728 24.1498 10.9951 24.1772 11.0233L24.6082 10.6059ZM24.177 11.0232C24.2253 11.0731 24.2542 11.1413 24.2542 11.215H24.8542C24.8542 10.9828 24.7628 10.7659 24.6084 10.6061L24.177 11.0232ZM24.2542 11.215V16.2075H24.8542V11.215H24.2542ZM24.2542 16.2075C24.2542 16.3226 24.1838 16.4235 24.0807 16.4631L24.2955 17.0233C24.6332 16.8938 24.8542 16.5683 24.8542 16.2075H24.2542ZM24.0807 16.4631L20.1642 17.9646L20.379 18.5249L24.2955 17.0233L24.0807 16.4631ZM20.1642 17.9646C20.1035 17.9879 20.0366 17.9879 19.9759 17.9646L19.7611 18.5249C19.9601 18.6011 20.18 18.6011 20.379 18.5249L20.1642 17.9646ZM19.9759 17.9646L16.0594 16.4631L15.8446 17.0233L19.7612 18.5249L19.9759 17.9646ZM16.0594 16.4631C16.0226 16.449 15.9903 16.4273 15.9637 16.3999L15.5336 16.8183C15.6195 16.9066 15.7248 16.9774 15.8446 17.0233L16.0594 16.4631ZM15.9637 16.3999C15.915 16.3499 15.8859 16.2814 15.8859 16.2075H15.2859C15.2859 16.4405 15.378 16.6583 15.5336 16.8183L15.9637 16.3999ZM15.8859 16.2075V11.215H15.2859V16.2075H15.8859ZM15.8859 11.215C15.8859 11.0987 15.9577 10.9971 16.0622 10.9584L15.8537 10.3957C15.5112 10.5227 15.2859 10.8506 15.2859 11.215H15.8859ZM16.0622 10.9584L19.9787 9.50684L19.7702 8.94424L15.8537 10.3957L16.0622 10.9584ZM19.9787 9.50684C20.0377 9.48497 20.1024 9.48497 20.1614 9.50684L20.3699 8.94424C20.1764 8.8725 19.9637 8.87251 19.7702 8.94424L19.9787 9.50684ZM20.1614 9.50684L24.0779 10.9584L24.2865 10.3957L20.3699 8.94424L20.1614 9.50684ZM24.0779 10.9584C24.1161 10.9725 24.1496 10.9948 24.177 11.0232L24.6084 10.6061C24.52 10.5147 24.4108 10.4418 24.2865 10.3957L24.0779 10.9584ZM24.8546 11.2154C24.8546 10.9829 24.763 10.7657 24.6082 10.6059L24.1772 11.0233C24.2256 11.0733 24.2546 11.1416 24.2546 11.2154H24.8546ZM24.8546 16.2078V11.2154H24.2546V16.2078H24.8546ZM24.2959 17.0237C24.6336 16.8942 24.8546 16.5687 24.8546 16.2078H24.2546C24.2546 16.323 24.1842 16.4239 24.0811 16.4634L24.2959 17.0237ZM20.3793 18.5252L24.2959 17.0237L24.0811 16.4634L20.1645 17.965L20.3793 18.5252ZM19.7615 18.5252C19.9605 18.6015 20.1804 18.6015 20.3793 18.5252L20.1645 17.965C20.1039 17.9883 20.037 17.9883 19.9763 17.965L19.7615 18.5252ZM15.845 17.0237L19.7615 18.5252L19.9763 17.965L16.0598 16.4634L15.845 17.0237ZM15.5334 16.8181C15.6194 16.9067 15.7249 16.9777 15.845 17.0237L16.0598 16.4634C16.0229 16.4493 15.9905 16.4276 15.9639 16.4001L15.5334 16.8181ZM10.7137 4.0766C10.7137 3.84415 10.6221 3.62695 10.4673 3.46716L10.0363 3.88456C10.0847 3.9345 10.1137 4.00281 10.1137 4.0766H10.7137ZM10.7137 9.06904V4.0766H10.1137V9.06904H10.7137ZM10.155 9.88489C10.4927 9.75542 10.7137 9.42991 10.7137 9.06904H10.1137C10.1137 9.18419 10.0433 9.28514 9.94018 9.32466L10.155 9.88489ZM6.23842 11.3865L10.155 9.88489L9.94018 9.32466L6.02363 10.8262L6.23842 11.3865ZM5.62061 11.3865C5.81957 11.4627 6.03946 11.4627 6.23842 11.3865L6.02363 10.8262C5.96296 10.8495 5.89608 10.8495 5.8354 10.8262L5.62061 11.3865ZM1.70407 9.88489L5.62061 11.3865L5.8354 10.8262L1.91886 9.32466L1.70407 9.88489ZM1.39254 9.67936C1.47851 9.76788 1.58405 9.83888 1.70407 9.88489L1.91886 9.32466C1.88203 9.31054 1.84962 9.28879 1.82297 9.26135L1.39254 9.67936ZM1.39273 9.67955C1.47861 9.76782 1.58395 9.83861 1.70371 9.88452L1.9185 9.32428C1.88174 9.31019 1.8494 9.28851 1.82278 9.26115L1.39273 9.67955ZM1.70371 9.88452L5.62025 11.3861L5.83504 10.8258L1.9185 9.32428L1.70371 9.88452ZM5.62025 11.3861C5.81921 11.4624 6.0391 11.4624 6.23806 11.3861L6.02327 10.8258C5.9626 10.8491 5.89572 10.8491 5.83504 10.8258L5.62025 11.3861ZM6.23806 11.3861L10.1546 9.88452L9.93982 9.32428L6.02327 10.8258L6.23806 11.3861ZM10.1546 9.88452C10.4923 9.75505 10.7133 9.42953 10.7133 9.06867H10.1133C10.1133 9.18382 10.0429 9.28476 9.93982 9.32428L10.1546 9.88452ZM10.7133 9.06867V4.07622H10.1133V9.06867H10.7133ZM10.7133 4.07622C10.7133 3.84405 10.6219 3.62709 10.4675 3.46736L10.0361 3.88437C10.0844 3.93429 10.1133 4.00252 10.1133 4.07622H10.7133ZM10.4673 3.46716C10.379 3.37598 10.27 3.30334 10.1459 3.25733L9.93741 3.81994C9.97549 3.83405 10.0089 3.85629 10.0363 3.88456L10.4673 3.46716ZM10.4675 3.46736C10.3791 3.37591 10.2699 3.30306 10.1456 3.25696L9.93705 3.81957C9.9752 3.83371 10.0087 3.856 10.0361 3.88437L10.4675 3.46736ZM10.1456 3.25696L6.22901 1.80545L6.02051 2.36806L9.93705 3.81957L10.1456 3.25696ZM6.22901 1.80545C6.03546 1.73372 5.82285 1.73372 5.6293 1.80545L5.83781 2.36806C5.89682 2.34619 5.96149 2.34619 6.02051 2.36806L6.22901 1.80545ZM5.6293 1.80545L1.71276 3.25696L1.92126 3.81957L5.83781 2.36806L5.6293 1.80545ZM1.71276 3.25696C1.3703 3.38388 1.145 3.71184 1.145 4.07622H1.745C1.745 3.95994 1.81678 3.85829 1.92126 3.81957L1.71276 3.25696ZM1.145 4.07622V9.06867H1.745V4.07622H1.145ZM1.145 9.06867C1.145 9.30168 1.23706 9.51954 1.39273 9.67955L1.82278 9.26115C1.77414 9.21116 1.745 9.14264 1.745 9.06867H1.145ZM1.14536 9.06904C1.14536 9.30178 1.2372 9.5194 1.39254 9.67936L1.82297 9.26135C1.77444 9.21137 1.74536 9.14293 1.74536 9.06904H1.14536ZM1.14536 4.0766V9.06904H1.74536V4.0766H1.14536ZM1.71312 3.25734C1.37066 3.38425 1.14536 3.71221 1.14536 4.0766H1.74536C1.74536 3.96031 1.81714 3.85866 1.92162 3.81994L1.71312 3.25734ZM5.62966 1.80583L1.71312 3.25734L1.92162 3.81994L5.83817 2.36843L5.62966 1.80583ZM6.22937 1.80583C6.03582 1.73409 5.82321 1.73409 5.62966 1.80583L5.83817 2.36843C5.89718 2.34656 5.96185 2.34656 6.02087 2.36843L6.22937 1.80583ZM10.1459 3.25733L6.22937 1.80583L6.02087 2.36843L9.93741 3.81994L10.1459 3.25733ZM5.82526 2.47796L2.03097 3.88416L2.23948 4.44677L6.03377 3.04056L5.82526 2.47796ZM9.8277 3.88403L6.03377 2.47796L5.82526 3.04056L9.61919 4.44663L9.8277 3.88403ZM10.0234 8.98083V4.16533H9.42344V8.98083H10.0234ZM6.03655 10.7156L9.83084 9.26095L9.61605 8.70071L5.82176 10.1554L6.03655 10.7156ZM2.02783 9.26109L5.82176 10.7156L6.03655 10.1554L2.24262 8.70085L2.02783 9.26109ZM1.83523 4.16546V8.98097H2.43523V4.16546H1.83523ZM1.83523 8.98097V8.9812H2.43523V8.98097H1.83523ZM2.02738 9.26091L2.02774 9.26105L2.24272 8.70089L2.24236 8.70075L2.02738 9.26091ZM1.83487 4.16509V8.98083H2.43487V4.16509H1.83487ZM5.8249 2.47759L2.03061 3.88379L2.23912 4.44639L6.03341 3.04019L5.8249 2.47759ZM9.8277 3.88379L6.03341 2.47759L5.8249 3.04019L9.61919 4.44639L9.8277 3.88379ZM10.0234 4.16533V4.16509H9.42344V4.16533H10.0234ZM9.82808 3.88417L9.82772 3.88404L9.61917 4.44662L9.61953 4.44676L9.82808 3.88417ZM10.0238 8.9812V4.16546H9.42381V8.9812H10.0238ZM6.03691 10.716L9.8312 9.26132L9.61641 8.70109L5.82212 10.1558L6.03691 10.716ZM2.02783 9.26132L5.82212 10.716L6.03691 10.1558L2.24262 8.70109L2.02783 9.26132ZM9.62147 4.03058L6.03377 2.70094L5.82526 3.26355L9.41296 4.59319L9.62147 4.03058ZM9.81722 8.8365V4.31188H9.21722V8.8365H9.81722ZM6.03691 10.4921L9.62461 9.11662L9.40982 8.55639L5.82212 9.93187L6.03691 10.4921ZM2.23442 9.11662L5.82212 10.4921L6.03691 9.93187L2.44921 8.55639L2.23442 9.11662ZM2.04182 4.31188V8.8365H2.64182V4.31188H2.04182ZM5.82526 2.70094L2.23756 4.03058L2.44607 4.59319L6.03377 3.26355L5.82526 2.70094ZM6.8582 13.5052L3.2705 14.8349L3.47901 15.3975L7.06671 14.0678L6.8582 13.5052ZM10.6544 14.8349L7.06671 13.5052L6.8582 14.0678L10.4459 15.3975L10.6544 14.8349ZM10.8502 19.6408V15.1162H10.2502V19.6408H10.8502ZM7.06985 21.2964L10.6576 19.9209L10.4428 19.3607L6.85506 20.7362L7.06985 21.2964ZM3.26736 19.9209L6.85506 21.2964L7.06985 20.7362L3.48215 19.3607L3.26736 19.9209ZM3.07476 15.1162V19.6408H3.67476V15.1162H3.07476ZM10.8609 14.6884L10.8606 14.6883L10.6522 15.251L10.6526 15.2511L10.8609 14.6884ZM11.0567 19.7855V14.9698H10.4567V19.7855H11.0567ZM7.06985 21.5203L10.8641 20.0656L10.6494 19.5054L6.85506 20.9601L7.06985 21.5203ZM3.06077 20.0656L6.85506 21.5203L7.06985 20.9601L3.27556 19.5054L3.06077 20.0656ZM2.86817 19.7853V19.7855H3.46817V19.7853H2.86817ZM3.06077 20.0654L6.8547 21.5199L7.06949 20.9597L3.27556 19.5051L3.06077 20.0654ZM7.06949 21.5199L10.8638 20.0653L10.649 19.505L6.8547 20.9597L7.06949 21.5199ZM11.0564 19.7851V14.9696H10.4564V19.7851H11.0564ZM10.8606 14.6883L7.06671 13.2823L6.8582 13.8449L10.6521 15.2509L10.8606 14.6883ZM11.0564 14.9696V14.9694H10.4564V14.9696H11.0564ZM10.8606 14.6881L7.06635 13.2819L6.85784 13.8445L10.6521 15.2507L10.8606 14.6881ZM6.85784 13.2819L3.06356 14.6881L3.27206 15.2507L7.06635 13.8445L6.85784 13.2819ZM2.86781 14.9694V19.7851H3.46781V14.9694H2.86781ZM3.06098 20.0655L3.06134 20.0656L3.275 19.5049L3.27464 19.5048L3.06098 20.0655ZM2.86817 14.9698V19.7853H3.46817V14.9698H2.86817ZM6.8582 13.2823L3.06392 14.6885L3.27242 15.2511L7.06671 13.8449L6.8582 13.2823ZM19.9662 9.61674L16.1719 11.0229L16.3804 11.5855L20.1747 10.1793L19.9662 9.61674ZM23.9686 11.0228L20.1747 9.61674L19.9662 10.1793L23.7601 11.5854L23.9686 11.0228ZM23.5643 11.3041V16.1196H24.1643V11.3041H23.5643ZM23.7569 15.8395L19.9627 17.2942L20.1775 17.8544L23.9717 16.3997L23.7569 15.8395ZM20.1775 17.2942L16.3835 15.8396L16.1687 16.3999L19.9627 17.8544L20.1775 17.2942ZM15.9761 11.3042V16.1198H16.5761V11.3042H15.9761ZM16.3836 15.8397L16.3832 15.8395L16.1683 16.3997L16.1687 16.3999L16.3836 15.8397ZM16.5758 16.1196V11.3039H15.9758V16.1196H16.5758ZM16.38 11.5852L20.1743 10.179L19.9658 9.61637L16.1715 11.0226L16.38 11.5852ZM19.9658 10.179L23.7601 11.5852L23.9686 11.0226L20.1743 9.61637L19.9658 10.179ZM23.5643 11.3039V11.3041H24.1643V11.3039H23.5643ZM23.9689 11.0229L23.9685 11.0228L23.7601 11.5854L23.7605 11.5856L23.9689 11.0229ZM24.1647 16.12V11.3042H23.5647V16.12H24.1647ZM20.1778 17.8548L23.9721 16.4001L23.7573 15.8399L19.963 17.2946L20.1778 17.8548ZM16.1687 16.4001L19.963 17.8548L20.1778 17.2946L16.3835 15.8399L16.1687 16.4001ZM15.9761 16.1198V16.12H16.5761V16.1198H15.9761ZM23.7624 11.1694L20.1747 9.83973L19.9662 10.4023L23.5539 11.732L23.7624 11.1694ZM23.9581 15.9753V11.4507H23.3581V15.9753H23.9581ZM20.1778 17.6309L23.7655 16.2554L23.5507 15.6952L19.963 17.0707L20.1778 17.6309ZM16.3753 16.2554L19.963 17.6309L20.1778 17.0707L16.5901 15.6952L16.3753 16.2554ZM16.1827 11.4507V15.9753H16.7827V11.4507H16.1827ZM19.9662 9.83973L16.3785 11.1694L16.587 11.732L20.1747 10.4023L19.9662 9.83973Z" fill="#323232" mask="url(#path-1-outside-1_347_221)"/>
</g>
</g>
</svg>
