<svg width="24" height="24" viewBox="0 0 24 24" fill="none" xmlns="http://www.w3.org/2000/svg">
<path d="M9.20238 17.75H8.54762L9.20238 13.1667H6.91071C6.53095 13.1667 6.5375 12.9571 6.6619 12.7345C6.78631 12.5119 6.69464 12.6821 6.70774 12.656C7.55238 11.1631 8.82262 8.93691 10.5119 5.96429H11.1667L10.5119 10.5476H12.8036C13.1244 10.5476 13.1702 10.7637 13.1113 10.8815L13.0655 10.9798C10.4857 15.4911 9.20238 17.75 9.20238 17.75Z" fill="#323232"/>
<path d="M2 21L17 21C17.69 21 18.23 20.65 18.59 20.12L24 12L18.59 3.89C18.23 3.36 17.62 3 16.93 3L2 3C0.900002 3 1.49493e-06 3.9 1.39876e-06 5L1.74846e-07 19C7.86805e-08 20.1 0.9 21 2 21ZM2 5L16.93 5L21.6 12L16.94 19L2 19L2 5Z" fill="#323232"/>
</svg>
