<svg width="218" height="217" viewBox="0 0 218 217" fill="none" xmlns="http://www.w3.org/2000/svg">
    <g clip-path="url(#clip0_999_68958)" filter="url(#filter0_d_999_68958)">
        <path opacity="0.5" d="M150.699 378.35C119.454 400.436 68.9623 388.645 28.9272 397.313C14.9959 400.333 2.06452 405.924 -12.8827 406.108C-47.1012 406.563 -81.383 378.816 -103.801 349.499C-114.496 335.518 -123.894 320.218 -126.829 304.518C-129.086 292.444 -127.404 280.866 -125.693 269.52L-95.9806 70.6496C-92.6598 48.447 -87.8941 24.136 -67.9681 14.0176C-54.2464 7.03999 -36.0609 8.4087 -18.7783 10.1867C2.45799 12.3713 25.3867 15.5791 43.7446 29.3092C64.7503 45.0051 74.0566 70.0959 91.2449 89.4842C119.087 120.932 166.381 136.184 187.004 171.288C196.629 187.675 198.542 205.703 198.243 222.549C197.684 254.31 184.95 280.327 181.306 310.487C178.191 336.266 172.09 363.231 150.699 378.35Z" fill="white"/>
        <rect width="73.4317" height="73.4317" rx="36.7159" transform="matrix(-1 0 0 1 105.893 29.3052)" fill="#CDE1FD"/>
        <path d="M59.6204 203.594C59.6204 204.066 59.4831 206.843 59.8853 207.309C60.6098 208.151 66.476 207.765 66.7505 207.494C67.025 207.223 67.1941 206.642 66.9452 206.476C66.6962 206.31 64.3663 205.837 64.0504 205.617C63.7344 205.397 63.3003 204.232 63.4663 203.607" fill="#1F161E"/>
        <path d="M20.3577 197.555C20.1566 197.98 18.848 200.428 19.014 201.024C19.3076 202.097 24.7781 204.251 25.1451 204.12C25.5122 203.99 25.9079 203.54 25.7547 203.284C25.6015 203.029 23.6961 201.609 23.5014 201.273C23.3068 200.938 23.4121 199.7 23.8206 199.205" fill="#1F161E"/>
        <path d="M35.4797 117.605C35.3808 119.967 34.9308 153.351 34.9308 153.351L19.6109 197.661C20.0578 198.707 24.242 200.128 24.8388 199.895C25.4357 199.662 50.1899 154.835 50.1899 154.835" fill="#1F161E"/>
        <path d="M64.3993 117.605C65.6568 118.434 64.1535 203.59 64.1535 203.59C63.6461 204.181 59.5959 204.095 58.9193 203.59C58.2426 203.086 51.6615 163.009 50.9849 160.803C50.3082 158.598 35.4799 117.605 35.4799 117.605C35.4799 117.605 62.5322 116.373 64.3993 117.605Z" fill="#494949"/>
        <path d="M95.5432 71.9262C96.3666 71.3485 99.8583 67.1036 100.27 65.677C100.682 64.2503 100.991 58.8724 96.9188 60.0948C92.8462 61.3172 94.6846 65.6259 91.8122 68.342" fill="#F8CDBA"/>
        <path d="M96.9057 56.2475L100.59 59.1885L94.1822 67.2152L90.4981 64.2742L96.9057 56.2475Z" fill="#1F161E"/>
        <path d="M45.0903 68.3423C44.0882 69.2742 33.8398 86.5346 33.8398 88.6953C33.8398 90.856 36.2048 103.961 37.5645 106.757C38.9241 109.553 45.0903 68.3423 45.0903 68.3423Z" fill="#1F161E"/>
        <path d="M51.1182 63.5386C36.3665 63.5386 34.4388 115.524 35.4792 117.614C36.5197 119.705 62.3145 119.462 64.405 117.614C66.4955 115.766 64.6859 63.5386 51.1182 63.5386Z" fill="#002DE3"/>
        <path d="M53.7715 65.2748C53.7715 66.2004 48.6649 66.2706 48.6649 65.2748V59.0703H53.7715V65.2748Z" fill="#F8CDBA"/>
        <path d="M48.6575 62.7697C48.6575 62.2175 49.9341 60.3121 50.8916 60.6345C49.6884 60.21 49.0947 58.761 48.6575 59.0578V62.7697Z" fill="#0F1828"/>
        <path d="M53.4832 61.1576C49.8151 61.1576 46.8414 58.184 46.8414 54.5158C46.8414 50.8476 49.8151 47.874 53.4832 47.874C57.1514 47.874 60.125 50.8476 60.125 54.5158C60.125 58.184 57.1514 61.1576 53.4832 61.1576Z" fill="#F8CDBA"/>
        <path d="M60.1991 55.984C59.5875 55.984 59.0917 55.7253 59.0917 55.4063C59.0917 55.0873 59.5875 54.8286 60.1991 54.8286C60.8108 54.8286 61.3066 55.0873 61.3066 55.4063C61.3066 55.7253 60.8108 55.984 60.1991 55.984Z" fill="#FA9E9F"/>
        <path d="M53.2348 55.984C52.6231 55.984 52.1273 55.7253 52.1273 55.4063C52.1273 55.0873 52.6231 54.8286 53.2348 54.8286C53.8464 54.8286 54.3423 55.0873 54.3423 55.4063C54.3423 55.7253 53.8464 55.984 53.2348 55.984Z" fill="#FA9E9F"/>
        <path d="M57.5024 54.2095C57.7067 54.5063 58.779 55.7478 57.6492 56.2489" stroke="#0F1828" stroke-width="0.506679" stroke-miterlimit="10" stroke-linecap="round"/>
        <path d="M55.4077 57.6982C55.0886 57.6982 54.5619 57.2865 54.2907 56.9131" stroke="#0F1828" stroke-width="0.506679" stroke-miterlimit="10" stroke-linecap="round"/>
        <path d="M47.1359 50.6445C47.1359 48.3401 50.3498 46.623 52.5872 46.623C56.149 46.623 60.4896 47.4912 61.2046 47.7433C62.4046 48.1614 62.6089 49.4413 62.6089 49.8689C62.6089 51.6626 61.9706 52.7797 59.979 53.0606C59.8426 52.4278 59.6078 51.8204 59.2832 51.2605C58.7322 51.0486 58.1239 51.0385 57.5661 51.2318C57.0618 51.4073 52.8489 53.3925 49.7307 53.3925C49.3157 53.9766 48.4029 57.5416 48.671 59.0544C47.7582 59.1087 46.0762 56.1373 45.9901 54.5862C45.9706 54.0538 46.0759 53.5244 46.2975 53.04C46.5192 52.5556 46.8511 52.1299 47.2667 51.7967C47.2252 51.4616 47.1359 50.8264 47.1359 50.6445Z" fill="#0F1828"/>
        <path d="M49.4367 56.2936C48.6294 56.2936 47.9749 55.6392 47.9749 54.8319C47.9749 54.0246 48.6294 53.3701 49.4367 53.3701C50.244 53.3701 50.8984 54.0246 50.8984 54.8319C50.8984 55.6392 50.244 56.2936 49.4367 56.2936Z" fill="#F8CDBA"/>
        <path d="M47.2408 77.5821C50.8984 83.1706 70.6738 91.9859 72.7547 91.9859C78.2731 91.9859 94.611 73.8543 95.543 71.9201C94.4674 70.7712 92.1758 68.3359 91.8183 68.3359C91.4609 68.3359 75.9081 79.0853 72.9686 79.0853C70.0291 79.0853 56.0976 69.2839 54.2848 68.8434" fill="#002DE3"/>
        <path d="M59.2129 71.6487C56.8032 70.1518 54.885 68.9869 54.285 68.8433" stroke="#0F1828" stroke-width="0.734317" stroke-linecap="round" stroke-linejoin="round"/>
        <path d="M63.3521 88.258C56.9688 85.1908 49.3695 80.8438 47.2407 77.5884" stroke="#0F1828" stroke-width="0.734317" stroke-linecap="round" stroke-linejoin="round"/>
        <path d="M64.3833 96.167C64.2524 94.9191 57.7862 85.4304 56.5383 84.6963C57.8628 85.4336 62.8769 87.9773 63.3524 88.2581C63.6301 89.0018 64.3833 96.167 64.3833 96.167Z" fill="#1F161E"/>
        <g clip-path="url(#clip1_999_68958)">
            <rect width="96" height="96" rx="48" transform="matrix(-1 0 0 1 206 95.3052)" fill="#CDE1FD"/>
            <path d="M136.143 157.593L141.077 155.859L144.854 166.609L139.92 168.342L136.143 157.593Z" fill="#1F161E"/>
            <path d="M204.662 178.605C204.662 192.137 198.588 194.978 192.546 194.978C177.242 194.978 157.331 186.278 156.207 185.942C156.56 187.366 158.791 223.444 158.791 223.652C158.261 223.946 154.195 224.199 152.827 223.946C152.473 223.069 141.722 180.156 141.722 179.026C141.722 177.896 142.649 176.177 146.152 175.929C147.633 175.824 168.241 175.217 168.241 175.217" fill="#1F161E"/>
            <path d="M153.177 169.249C148.566 173.995 127.976 207.121 128.159 207.895C128.341 208.669 133.075 210.31 134.076 209.868C138.322 208.007 164.391 176.742 165.406 176.27C166.421 175.798 167.941 175.98 168.847 176.11C171.204 173.325 165.929 170.018 153.177 169.249Z" fill="#0F1828"/>
            <path d="M173.994 131.413C167.061 131.413 165.068 137.977 164.494 140.456C162.66 148.369 167.766 178.44 168.357 179.269C173.374 186.283 202.054 186.906 204.851 183.868C207.648 180.83 192.937 131.413 173.994 131.413Z" fill="#375FFF"/>
            <path d="M175.031 132.797C175.219 133.399 170.325 134.922 170.138 134.323L168.24 128.233L173.13 126.707L175.031 132.797Z" fill="#F8CDBA"/>
            <path d="M170.181 129.674C170.659 129.525 174.133 129.926 174.366 130.676L173.131 126.707C172.369 126.944 170.181 129.674 170.181 129.674Z" fill="#1F161E"/>
            <path d="M167.45 130.651C163.482 130.651 160.266 127.435 160.266 123.467C160.266 119.5 163.482 116.283 167.45 116.283C171.418 116.283 174.634 119.5 174.634 123.467C174.634 127.435 171.418 130.651 167.45 130.651Z" fill="#F8CDBA"/>
            <path d="M160.284 127.252C160.176 126.906 160.627 126.458 161.292 126.251C161.956 126.043 162.582 126.155 162.69 126.501C162.798 126.846 162.347 127.294 161.682 127.501C161.017 127.709 160.391 127.597 160.284 127.252Z" fill="#FA9E9F"/>
            <path d="M167.838 124.896C167.731 124.551 168.182 124.103 168.846 123.895C169.511 123.688 170.137 123.8 170.245 124.145C170.353 124.491 169.901 124.939 169.237 125.146C168.572 125.353 167.946 125.241 167.838 124.896Z" fill="#FA9E9F"/>
            <path d="M164.014 124.667C163.89 125.057 163.154 126.764 164.538 126.93" stroke="#0F1828" stroke-width="0.480644" stroke-miterlimit="10" stroke-linecap="round"/>
            <path d="M167.455 127.744C167.809 127.62 168.234 127.011 168.4 126.512" stroke="#0F1828" stroke-width="0.480644" stroke-miterlimit="10" stroke-linecap="round"/>
            <path d="M165.277 114.042C167.172 113.805 172.67 112.169 173.92 111.032C174.512 111.344 176.809 113.408 178.683 116.202L176.023 118.875L179.384 117.324C180.269 118.775 180.878 120.378 181.179 122.051C180.311 124.391 177.588 125.354 177.075 125.418C173.764 125.836 172.493 120.691 170.826 120.054C167.993 118.967 164.658 121.789 160.462 121.612C159.531 119.711 160.742 114.612 165.277 114.042Z" fill="#1F161E"/>
            <path d="M174.037 123.938C173.12 123.938 172.377 123.194 172.377 122.277C172.377 121.36 173.12 120.617 174.037 120.617C174.954 120.617 175.698 121.36 175.698 122.277C175.698 123.194 174.954 123.938 174.037 123.938Z" fill="#F8CDBA"/>
            <path d="M181.177 148.252C181.531 150.469 182.678 171.398 179.93 173.434C174.046 177.792 146.87 172.46 142.753 170.934C142.306 169.475 142.753 164.84 142.753 164.84C144.339 164.777 164.351 164.586 165.544 163.07C166.737 161.555 166.879 149.166 166.688 147.767" fill="#375FFF"/>
            <path d="M139.984 171.419C137.859 171.419 136.135 169.696 136.135 167.57C136.135 165.445 137.859 163.722 139.984 163.722C142.11 163.722 143.833 165.445 143.833 167.57C143.833 169.696 142.11 171.419 139.984 171.419Z" fill="#F8CDBA"/>
            <path d="M165.547 163.081C166.754 161.555 166.882 149.176 166.691 147.778" stroke="#0F1828" stroke-width="0.400537" stroke-linecap="round" stroke-linejoin="round"/>
            <path d="M167.43 175.006C172.974 175.314 177.822 175.006 179.932 173.434C181.136 172.545 181.592 168.038 181.702 163.063" stroke="#0F1828" stroke-width="0.400537" stroke-linecap="round" stroke-linejoin="round"/>
        </g>
        <mask id="path-42-inside-1_999_68958" fill="white">
            <path fill-rule="evenodd" clip-rule="evenodd" d="M84.0217 48.1174H110.117C114.564 48.1174 118.169 44.5207 118.169 40.0839V36.3391C118.169 31.9024 114.564 28.3057 110.117 28.3057H81.0541C76.607 28.3057 73.0018 31.9024 73.0018 36.3391V40.0839C73.0018 43.7149 75.4164 46.7833 78.7311 47.778L78.8424 52.6817L84.0217 48.1174Z"/>
        </mask>
        <path fill-rule="evenodd" clip-rule="evenodd" d="M84.0217 48.1174H110.117C114.564 48.1174 118.169 44.5207 118.169 40.0839V36.3391C118.169 31.9024 114.564 28.3057 110.117 28.3057H81.0541C76.607 28.3057 73.0018 31.9024 73.0018 36.3391V40.0839C73.0018 43.7149 75.4164 46.7833 78.7311 47.778L78.8424 52.6817L84.0217 48.1174Z" fill="#78909C"/>
        <path d="M84.0217 48.1174L83.1527 47.1313L83.5252 46.803H84.0217V48.1174ZM78.7311 47.778L79.1089 46.5191L80.0235 46.7936L80.0452 47.7482L78.7311 47.778ZM78.8424 52.6817L79.7114 53.6678L77.5924 55.5353L77.5283 52.7115L78.8424 52.6817ZM110.117 49.4318H84.0217V46.803H110.117V49.4318ZM119.484 40.0839C119.484 45.2495 115.287 49.4318 110.117 49.4318V46.803C113.841 46.803 116.855 43.7919 116.855 40.0839H119.484ZM119.484 36.3391V40.0839H116.855V36.3391H119.484ZM110.117 26.9913C115.287 26.9913 119.484 31.1735 119.484 36.3391H116.855C116.855 32.6312 113.841 29.6201 110.117 29.6201V26.9913ZM81.0541 26.9913H110.117V29.6201H81.0541V26.9913ZM71.6874 36.3391C71.6874 31.1735 75.8839 26.9913 81.0541 26.9913V29.6201C77.33 29.6201 74.3162 32.6312 74.3162 36.3391H71.6874ZM71.6874 40.0839V36.3391H74.3162V40.0839H71.6874ZM78.3533 49.037C74.4999 47.8806 71.6874 44.313 71.6874 40.0839H74.3162C74.3162 43.1168 76.333 45.6861 79.1089 46.5191L78.3533 49.037ZM80.0452 47.7482L80.1565 52.6519L77.5283 52.7115L77.417 47.8079L80.0452 47.7482ZM77.9734 51.6956L83.1527 47.1313L84.8907 49.1035L79.7114 53.6678L77.9734 51.6956Z" fill="white" mask="url(#path-42-inside-1_999_68958)"/>
        <path d="M89.5496 39.9596C88.5819 39.9596 87.7974 39.1769 87.7974 38.2115C87.7974 37.246 88.5819 36.4634 89.5496 36.4634C90.5173 36.4634 91.3018 37.246 91.3018 38.2115C91.3018 39.1769 90.5173 39.9596 89.5496 39.9596Z" fill="white"/>
        <path d="M95.5867 39.9596C94.619 39.9596 93.8345 39.1769 93.8345 38.2115C93.8345 37.246 94.619 36.4634 95.5867 36.4634C96.5544 36.4634 97.3389 37.246 97.3389 38.2115C97.3389 39.1769 96.5544 39.9596 95.5867 39.9596Z" fill="white"/>
        <path d="M101.622 39.9596C100.654 39.9596 99.8696 39.1769 99.8696 38.2115C99.8696 37.246 100.654 36.4634 101.622 36.4634C102.59 36.4634 103.374 37.246 103.374 38.2115C103.374 39.1769 102.59 39.9596 101.622 39.9596Z" fill="white"/>
        <mask id="path-47-inside-2_999_68958" fill="white">
            <path fill-rule="evenodd" clip-rule="evenodd" d="M136.146 140.117H110.05C105.603 140.117 101.998 136.521 101.998 132.084V128.339C101.998 123.902 105.603 120.306 110.05 120.306H139.113C143.561 120.306 147.166 123.902 147.166 128.339V132.084C147.166 135.715 144.751 138.783 141.436 139.778L141.325 144.682L136.146 140.117Z"/>
        </mask>
        <path fill-rule="evenodd" clip-rule="evenodd" d="M136.146 140.117H110.05C105.603 140.117 101.998 136.521 101.998 132.084V128.339C101.998 123.902 105.603 120.306 110.05 120.306H139.113C143.561 120.306 147.166 123.902 147.166 128.339V132.084C147.166 135.715 144.751 138.783 141.436 139.778L141.325 144.682L136.146 140.117Z" fill="#78909C"/>
        <path d="M136.146 140.117L137.015 139.131L136.642 138.803H136.146V140.117ZM141.436 139.778L141.059 138.519L140.144 138.794L140.122 139.748L141.436 139.778ZM141.325 144.682L140.456 145.668L142.575 147.535L142.639 144.712L141.325 144.682ZM110.05 141.432H136.146V138.803H110.05V141.432ZM100.684 132.084C100.684 137.25 104.88 141.432 110.05 141.432V138.803C106.326 138.803 103.312 135.792 103.312 132.084H100.684ZM100.684 128.339V132.084H103.312V128.339H100.684ZM110.05 118.991C104.88 118.991 100.684 123.174 100.684 128.339H103.312C103.312 124.631 106.326 121.62 110.05 121.62V118.991ZM139.113 118.991H110.05V121.62H139.113V118.991ZM148.48 128.339C148.48 123.174 144.284 118.991 139.113 118.991V121.62C142.838 121.62 145.851 124.631 145.851 128.339H148.48ZM148.48 132.084V128.339H145.851V132.084H148.48ZM141.814 141.037C145.668 139.881 148.48 136.313 148.48 132.084H145.851C145.851 135.117 143.834 137.686 141.059 138.519L141.814 141.037ZM140.122 139.748L140.011 144.652L142.639 144.712L142.75 139.808L140.122 139.748ZM142.194 143.696L137.015 139.131L135.277 141.103L140.456 145.668L142.194 143.696Z" fill="white" mask="url(#path-47-inside-2_999_68958)"/>
        <path d="M130.618 131.96C131.586 131.96 132.37 131.177 132.37 130.211C132.37 129.246 131.586 128.463 130.618 128.463C129.65 128.463 128.866 129.246 128.866 130.211C128.866 131.177 129.65 131.96 130.618 131.96Z" fill="white"/>
        <path d="M124.581 131.96C125.549 131.96 126.333 131.177 126.333 130.211C126.333 129.246 125.549 128.463 124.581 128.463C123.613 128.463 122.829 129.246 122.829 130.211C122.829 131.177 123.613 131.96 124.581 131.96Z" fill="white"/>
        <path d="M118.546 131.96C119.513 131.96 120.298 131.177 120.298 130.211C120.298 129.246 119.513 128.463 118.546 128.463C117.578 128.463 116.793 129.246 116.793 130.211C116.793 131.177 117.578 131.96 118.546 131.96Z" fill="white"/>
    </g>
    <defs>
        <filter id="filter0_d_999_68958" x="0" y="0" width="222" height="217" filterUnits="userSpaceOnUse" color-interpolation-filters="sRGB">
            <feFlood flood-opacity="0" result="BackgroundImageFix"/>
            <feColorMatrix in="SourceAlpha" type="matrix" values="0 0 0 0 0 0 0 0 0 0 0 0 0 0 0 0 0 0 127 0" result="hardAlpha"/>
            <feOffset dy="4"/>
            <feGaussianBlur stdDeviation="2"/>
            <feComposite in2="hardAlpha" operator="out"/>
            <feColorMatrix type="matrix" values="0 0 0 0 0 0 0 0 0 0 0 0 0 0 0 0 0 0 0.25 0"/>
            <feBlend mode="normal" in2="BackgroundImageFix" result="effect1_dropShadow_999_68958"/>
            <feBlend mode="normal" in="SourceGraphic" in2="effect1_dropShadow_999_68958" result="shape"/>
        </filter>
        <clipPath id="clip0_999_68958">
            <rect width="214" height="209" fill="white" transform="translate(4)"/>
        </clipPath>
        <clipPath id="clip1_999_68958">
            <rect width="96" height="96" rx="48" transform="matrix(-1 0 0 1 206 95.3052)" fill="white"/>
        </clipPath>
    </defs>
</svg>
