<svg viewBox="0 0 80 80" fill="none" xmlns="http://www.w3.org/2000/svg">
    <rect width="80" height="80" fill="white"/>
    <path opacity="0.98" d="M39.9331 62.225C54.7587 62.225 66.7773 50.2065 66.7773 35.3808C66.7773 20.5552 54.7587 8.53662 39.9331 8.53662C25.1074 8.53662 13.0889 20.5552 13.0889 35.3808C13.0889 50.2065 25.1074 62.225 39.9331 62.225Z" fill="url(#paint0_linear_912_20945)"/>
    <rect x="15.7129" y="41.895" width="35.6819" height="4.03946" rx="1.95458" fill="#F9F9F9"/>
    <rect opacity="0.5" x="28" y="49.9741" width="35.6819" height="4.03947" rx="1.95458" fill="#F1F1F1"/>
    <rect opacity="0.5" x="21.2676" y="57.6841" width="24.5734" height="4.03946" rx="1.95458" fill="#F1F1F1"/>
    <path fill-rule="evenodd" clip-rule="evenodd" d="M19.9717 40.9766H56.2424C56.2424 51.6538 54.8097 58.772 45.3612 65.8901H30.8529C21.9253 59.6306 19.9717 51.6538 19.9717 40.9766Z" fill="white" stroke="#2D2D2D" stroke-width="3.47512" stroke-linejoin="round"/>
    <path fill-rule="evenodd" clip-rule="evenodd" d="M16.3457 62.3311H60.0248C56.2435 65.8901 56.2435 67.9633 46.9174 69.2935H29.4485C19.9728 68.2035 19.9728 65.8901 16.3457 62.3311Z" fill="white" stroke="#2D2D2D" stroke-width="3.47512" stroke-linejoin="round"/>
    <path d="M67.9456 52.3748C67.6044 53.3871 67.1119 54.3402 66.4968 55.179C65.8817 56.0178 65.1561 56.7256 64.3622 57.2613C63.5682 57.7971 62.7217 58.1501 61.8716 58.3C61.0215 58.4498 60.1848 58.3935 59.41 58.1343C58.6352 57.8751 57.9377 57.4182 57.3579 56.7901C56.7781 56.1619 56.3276 55.375 56.0325 54.4749C55.7373 53.5749 55.6035 52.5796 55.6386 51.5468C55.6737 50.514 55.8771 49.4641 56.2371 48.4582C56.5783 47.446 57.0707 46.4928 57.6858 45.654C58.3009 44.8152 59.0265 44.1074 59.8205 43.5717C60.6144 43.036 61.461 42.6829 62.311 42.5331C63.1611 42.3832 63.9978 42.4395 64.7726 42.6987C65.5474 42.9579 66.245 43.4148 66.8247 44.043C67.4045 44.6711 67.855 45.458 68.1502 46.3581C68.4453 47.2582 68.5792 48.2534 68.5441 49.2863C68.509 50.3191 68.3055 51.3689 67.9456 52.3748Z" stroke="#2D2D2D" stroke-width="3.47512" stroke-linecap="round" stroke-linejoin="round"/>
    <path d="M34.311 22.9336C41.2282 30.0148 27.921 30.4788 34.311 37.7216" stroke="#2D2D2D" stroke-width="2.31675" stroke-linecap="round"/>
    <path d="M38.8091 23.1533C45.7278 30.2359 32.421 30.6986 38.8091 37.9413" stroke="#2D2D2D" stroke-width="2.31675" stroke-linecap="round"/>
    <path d="M43.7616 23.1533C50.6757 30.2359 37.3688 30.6986 43.7616 37.9413" stroke="#2D2D2D" stroke-width="2.31675" stroke-linecap="round"/>
    <defs>
        <linearGradient id="paint0_linear_912_20945" x1="39.9331" y1="8.53662" x2="39.9331" y2="48.8517" gradientUnits="userSpaceOnUse">
            <stop stop-color="#811FFF" stop-opacity="0.18"/>
            <stop offset="1" stop-color="#D9D9D9" stop-opacity="0"/>
        </linearGradient>
    </defs>
</svg>
