<svg width="295" height="199" viewBox="0 0 295 199" fill="none" xmlns="http://www.w3.org/2000/svg">
    <mask id="mask0_791_11418" style="mask-type:luminance" maskUnits="userSpaceOnUse" x="-14" y="-41" width="299" height="299">
        <path fill-rule="evenodd" clip-rule="evenodd" d="M-13.4766 257.852H284.523V-40.1484H-13.4766V257.852Z" fill="white"/>
    </mask>
    <g mask="url(#mask0_791_11418)">
        <mask id="mask1_791_11418" style="mask-type:luminance" maskUnits="userSpaceOnUse" x="-14" y="-41" width="299" height="299">
            <path fill-rule="evenodd" clip-rule="evenodd" d="M-13.4766 -40.146V257.854H284.523V-40.146H-13.4766Z" fill="white"/>
        </mask>
        <g mask="url(#mask1_791_11418)">
            <path d="M260.479 169.341C258.294 163.728 256.662 157.769 254.879 151.476C253.677 147.235 251.74 142.49 247.54 141.153C243.455 139.852 239.055 142.548 236.542 146.021C234.029 149.495 232.763 153.706 230.613 157.417C226.718 164.14 219.817 166.958 214.115 161.047C205.969 152.603 202.302 141.094 197.136 130.795C193.386 123.318 190.248 114.565 185.523 107.674C178.318 97.1663 168.438 88.2066 155.301 88.2066C146.973 89.4684 139.635 96.8445 134.669 106.062C129.703 115.28 126.807 126.243 124.338 137.179C119.848 157.067 116.559 177.417 113.274 197.741L279.032 195.807C278.373 195.815 274.308 190.383 273.53 189.63C267.166 183.472 263.346 176.703 260.479 169.341Z" fill="#D1F2F2"/>
        </g>
        <mask id="mask2_791_11418" style="mask-type:luminance" maskUnits="userSpaceOnUse" x="-14" y="-41" width="299" height="299">
            <path fill-rule="evenodd" clip-rule="evenodd" d="M-13.4766 -40.146V257.854H284.523V-40.146H-13.4766Z" fill="white"/>
        </mask>
        <g mask="url(#mask2_791_11418)">
            <path d="M229.016 178.816C228.691 185.259 221.68 196.524 215.237 196.199C208.793 195.874 205.357 184.082 205.682 177.639C206.007 171.196 212.869 138.951 219.313 139.276C225.756 139.601 229.341 172.372 229.016 178.816Z" fill="#58B9FF"/>
        </g>
        <mask id="mask3_791_11418" style="mask-type:luminance" maskUnits="userSpaceOnUse" x="-14" y="-41" width="299" height="299">
            <path fill-rule="evenodd" clip-rule="evenodd" d="M-13.4766 -40.146V257.854H284.523V-40.146H-13.4766Z" fill="white"/>
        </mask>
        <g mask="url(#mask3_791_11418)">
            <path d="M218.745 143.448L215.496 195.665C215.487 195.807 215.595 195.93 215.738 195.939C215.881 195.948 216.003 195.839 216.012 195.697L219.261 143.479C219.269 143.337 219.162 143.215 219.019 143.206C218.877 143.197 218.754 143.305 218.745 143.448Z" fill="#0858FF"/>
        </g>
        <mask id="mask4_791_11418" style="mask-type:luminance" maskUnits="userSpaceOnUse" x="-14" y="-41" width="299" height="299">
            <path fill-rule="evenodd" clip-rule="evenodd" d="M-13.4766 -40.146V257.854H284.523V-40.146H-13.4766Z" fill="white"/>
        </mask>
        <g mask="url(#mask4_791_11418)">
            <path d="M214.269 177.478C212.801 180.702 211.685 184.084 211.009 187.607C210.666 189.394 210.451 191.33 211.259 192.96C212.142 194.739 214.102 195.776 216.063 196.099C220.852 196.885 225.643 193.951 228.45 189.992C231.257 186.033 232.473 181.193 233.589 176.47C234.467 172.751 235.331 168.977 236.987 165.511C237.696 164.025 241.853 158.29 239.887 156.802C237.197 154.689 229.412 156.988 224.423 162.434C220.313 166.92 216.778 171.966 214.269 177.478Z" fill="#D1C4E9"/>
        </g>
        <mask id="mask5_791_11418" style="mask-type:luminance" maskUnits="userSpaceOnUse" x="-14" y="-41" width="299" height="299">
            <path fill-rule="evenodd" clip-rule="evenodd" d="M-13.4766 -40.146V257.854H284.523V-40.146H-13.4766Z" fill="white"/>
        </mask>
        <g mask="url(#mask5_791_11418)">
            <path d="M216.313 196.16C216.313 196.16 216.335 196.075 216.38 195.908C217.057 193.407 222.965 172.893 235.981 160.863C236.086 160.766 236.092 160.603 235.995 160.498C235.898 160.393 235.734 160.387 235.63 160.484C221.595 173.475 215.822 196.013 215.812 196.032C215.776 196.171 215.86 196.311 215.998 196.347C216.136 196.382 216.277 196.299 216.313 196.16Z" fill="#58B9FF"/>
        </g>
        <mask id="mask6_791_11418" style="mask-type:luminance" maskUnits="userSpaceOnUse" x="-14" y="-41" width="299" height="299">
            <path fill-rule="evenodd" clip-rule="evenodd" d="M-13.4766 -40.146V257.854H284.523V-40.146H-13.4766Z" fill="white"/>
        </mask>
        <g mask="url(#mask6_791_11418)">
            <path d="M248.139 172.162C247.644 173.049 246.716 173.654 245.874 174.128C244.836 174.713 243.73 175.227 242.661 175.725C241.288 176.363 239.869 177.023 238.559 177.846C237.603 178.447 236.755 179.124 236.043 179.85C237.168 177.295 238.482 175.063 240.031 173.068C242.07 170.444 244.162 169.114 246.253 169.114L246.398 169.117C247.045 169.135 247.548 169.296 247.894 169.593C248.605 170.203 248.577 171.379 248.139 172.162Z" fill="#0858FF"/>
        </g>
        <mask id="mask7_791_11418" style="mask-type:luminance" maskUnits="userSpaceOnUse" x="-14" y="-41" width="299" height="299">
            <path fill-rule="evenodd" clip-rule="evenodd" d="M-13.4766 -40.146V257.854H284.523V-40.146H-13.4766Z" fill="white"/>
        </mask>
        <g mask="url(#mask7_791_11418)">
            <path d="M250.474 186.722C249.647 187.311 248.55 187.461 247.586 187.529C246.397 187.614 245.178 187.605 243.999 187.597C242.485 187.587 240.92 187.576 239.383 187.76C238.262 187.893 237.206 188.142 236.252 188.494C238.362 186.665 240.505 185.211 242.758 184.071C245.724 182.572 248.184 182.265 250.074 183.16L250.204 183.224C250.781 183.517 251.167 183.878 251.353 184.295C251.733 185.15 251.205 186.201 250.474 186.722Z" fill="#0858FF"/>
        </g>
        <mask id="mask8_791_11418" style="mask-type:luminance" maskUnits="userSpaceOnUse" x="-14" y="-41" width="299" height="299">
            <path fill-rule="evenodd" clip-rule="evenodd" d="M-13.4766 -40.146V257.854H284.523V-40.146H-13.4766Z" fill="white"/>
        </mask>
        <g mask="url(#mask8_791_11418)">
            <path d="M244.962 193.884C244.274 193.789 243.658 193.349 243.146 192.932C242.516 192.417 241.913 191.84 241.33 191.284C240.582 190.57 239.809 189.831 238.959 189.202C238.339 188.744 237.697 188.372 237.058 188.099C238.964 188.179 240.711 188.46 242.366 188.949C244.544 189.593 245.911 190.594 246.432 191.925L246.466 192.018C246.616 192.434 246.639 192.794 246.536 193.089C246.324 193.693 245.569 193.967 244.962 193.884Z" fill="#0858FF"/>
        </g>
        <mask id="mask9_791_11418" style="mask-type:luminance" maskUnits="userSpaceOnUse" x="-14" y="-41" width="299" height="299">
            <path fill-rule="evenodd" clip-rule="evenodd" d="M-13.4766 -40.146V257.854H284.523V-40.146H-13.4766Z" fill="white"/>
        </mask>
        <g mask="url(#mask9_791_11418)">
            <path d="M229.517 196.228C229.517 196.228 229.517 196.18 229.521 196.079C229.592 194.567 230.606 181.865 246.304 170.948C246.409 170.875 246.435 170.73 246.362 170.625C246.289 170.519 246.144 170.493 246.038 170.566C229.141 182.312 229.049 196.184 229.052 196.226C229.051 196.354 229.155 196.458 229.284 196.459C229.412 196.459 229.516 196.356 229.517 196.228Z" fill="#00004B"/>
        </g>
        <mask id="mask10_791_11418" style="mask-type:luminance" maskUnits="userSpaceOnUse" x="-14" y="-41" width="299" height="299">
            <path fill-rule="evenodd" clip-rule="evenodd" d="M-13.4766 -40.146V257.854H284.523V-40.146H-13.4766Z" fill="white"/>
        </mask>
        <g mask="url(#mask10_791_11418)">
            <path d="M229.495 196.324C229.495 196.324 229.513 196.286 229.553 196.208C229.853 195.617 231.333 192.907 234.358 190.352C237.384 187.797 241.946 185.394 248.45 185.393C248.578 185.393 248.683 185.288 248.683 185.16C248.683 185.032 248.578 184.928 248.45 184.928C241.387 184.926 236.533 187.725 233.461 190.521C230.387 193.318 229.083 196.11 229.074 196.128C229.019 196.244 229.069 196.383 229.186 196.437C229.303 196.491 229.441 196.441 229.495 196.324Z" fill="#00004B"/>
        </g>
        <mask id="mask11_791_11418" style="mask-type:luminance" maskUnits="userSpaceOnUse" x="-14" y="-41" width="299" height="299">
            <path fill-rule="evenodd" clip-rule="evenodd" d="M-13.4766 -40.146V257.854H284.523V-40.146H-13.4766Z" fill="white"/>
        </mask>
        <g mask="url(#mask11_791_11418)">
            <path d="M236.921 188.463L236.928 188.463L236.963 188.462C237.323 188.463 239.983 188.603 245.138 192.49C245.24 192.568 245.385 192.547 245.463 192.445C245.54 192.342 245.52 192.197 245.417 192.119C240.209 188.189 237.449 187.997 236.963 187.998L236.887 188C236.759 188.009 236.663 188.121 236.673 188.249C236.682 188.376 236.793 188.473 236.921 188.463Z" fill="#00004B"/>
        </g>
        <mask id="mask12_791_11418" style="mask-type:luminance" maskUnits="userSpaceOnUse" x="-14" y="-41" width="299" height="299">
            <path fill-rule="evenodd" clip-rule="evenodd" d="M-13.4766 -40.146V257.854H284.523V-40.146H-13.4766Z" fill="white"/>
        </mask>
        <g mask="url(#mask12_791_11418)">
            <path d="M84.7474 196.345C80.8585 181.648 76.9487 166.944 72.3774 152.71C69.8003 144.685 66.9562 136.689 63.0053 130.268C59.0544 123.848 53.8204 119.11 48.5666 119.143C40.4697 120.71 35.2466 128.705 31.8211 137.558C29.5749 143.364 28.4861 150.398 26.8971 156.534C24.7082 164.985 23.5602 174.178 19.3554 181.574C16.412 186.751 11.8869 185.43 8.83702 180.779C7.15397 178.212 5.96698 175.159 4.08272 172.816C2.19841 170.473 -0.773069 168.947 -3.16529 170.423C-5.62463 171.941 -6.36021 175.783 -6.69111 179.152C-7.18221 184.153 -7.61228 188.881 -8.41724 193.412C-8.59252 194.399 -8.78765 195.376 -9.00293 196.345H84.7474Z" fill="#D1F2F2"/>
        </g>
        <mask id="mask13_791_11418" style="mask-type:luminance" maskUnits="userSpaceOnUse" x="-14" y="-41" width="299" height="299">
            <path fill-rule="evenodd" clip-rule="evenodd" d="M-13.4766 -40.146V257.854H284.523V-40.146H-13.4766Z" fill="white"/>
        </mask>
        <g mask="url(#mask13_791_11418)">
            <path d="M49.98 176.052C47.5507 173.25 44.4759 170.833 43.5063 167.297C42.7979 164.713 43.3567 161.979 43.6334 159.315C43.91 156.65 43.8127 153.704 42.0892 151.653C40.669 149.964 38.4256 149.23 36.2674 148.766C34.1094 148.302 31.8572 148.009 29.9422 146.911C26.8326 145.128 27.4522 142.095 25.7828 139.435C23.9096 136.45 19.5514 132.643 15.8155 134.625C11.8593 136.724 12.4861 143.099 15.1177 145.913C16.8634 147.779 19.0985 149.57 19.3552 152.113C19.7419 155.942 15.3555 159.388 16.562 163.042C17.4532 165.741 20.855 166.669 22.535 168.961C24.1969 171.23 23.8622 174.408 22.8836 177.044C21.905 179.679 20.3638 182.117 19.7551 184.861C18.5094 190.479 22.9166 194.36 27.9384 195.613C32.5528 196.763 42.5055 196.22 42.5055 196.22C46.0571 194.978 49.9949 191.858 51.9474 188.449C53.4225 185.873 53.6269 182.608 52.4838 179.869C51.8949 178.457 50.9938 177.221 49.98 176.052Z" fill="#D1C4E9"/>
        </g>
        <mask id="mask14_791_11418" style="mask-type:luminance" maskUnits="userSpaceOnUse" x="-14" y="-41" width="299" height="299">
            <path fill-rule="evenodd" clip-rule="evenodd" d="M-13.4766 -40.146V257.854H284.523V-40.146H-13.4766Z" fill="white"/>
        </mask>
        <g mask="url(#mask14_791_11418)">
            <path d="M19.9883 140.844C19.9883 140.844 20.0531 140.944 20.1772 141.142C22.0406 144.111 37.0592 168.866 38.7819 196.093C38.7924 196.257 38.934 196.382 39.0982 196.372C39.2624 196.361 39.3872 196.219 39.3767 196.055C37.5168 166.81 20.4987 140.542 20.4886 140.52C20.3992 140.382 20.2147 140.342 20.0765 140.432C19.9384 140.521 19.8989 140.706 19.9883 140.844Z" fill="#58B9FF"/>
        </g>
        <mask id="mask15_791_11418" style="mask-type:luminance" maskUnits="userSpaceOnUse" x="-14" y="-41" width="299" height="299">
            <path fill-rule="evenodd" clip-rule="evenodd" d="M-13.4766 -40.146V257.854H284.523V-40.146H-13.4766Z" fill="white"/>
        </mask>
        <g mask="url(#mask15_791_11418)">
            <path d="M5.10339 176.089C5.36527 175.864 5.74593 175.743 6.23489 175.729L6.3445 175.727C7.92575 175.727 9.50789 176.732 11.0495 178.717C12.2206 180.225 13.2144 181.912 14.0651 183.845C13.5264 183.295 12.8852 182.784 12.1625 182.33C11.1719 181.707 10.0985 181.208 9.06077 180.725C8.25271 180.349 7.41652 179.961 6.63141 179.518C5.99459 179.16 5.29309 178.702 4.91857 178.031C4.58761 177.439 4.56651 176.55 5.10339 176.089Z" fill="#58B9FF"/>
        </g>
        <mask id="mask16_791_11418" style="mask-type:luminance" maskUnits="userSpaceOnUse" x="-14" y="-41" width="299" height="299">
            <path fill-rule="evenodd" clip-rule="evenodd" d="M-13.4766 -40.146V257.854H284.523V-40.146H-13.4766Z" fill="white"/>
        </mask>
        <g mask="url(#mask16_791_11418)">
            <path d="M2.48858 187.203C2.629 186.888 2.92128 186.616 3.35719 186.394L3.45547 186.346C4.88468 185.669 6.7448 185.9 8.98725 187.034C10.6911 187.896 12.3113 188.996 13.907 190.379C13.1851 190.113 12.3866 189.925 11.5391 189.823C10.3774 189.684 9.1937 189.693 8.0492 189.701C7.15789 189.707 6.23587 189.713 5.33699 189.649C4.6079 189.597 3.77821 189.484 3.1527 189.038C2.60015 188.644 2.20083 187.851 2.48858 187.203Z" fill="#58B9FF"/>
        </g>
        <mask id="mask17_791_11418" style="mask-type:luminance" maskUnits="userSpaceOnUse" x="-14" y="-41" width="299" height="299">
            <path fill-rule="evenodd" clip-rule="evenodd" d="M-13.4766 -40.146V257.854H284.523V-40.146H-13.4766Z" fill="white"/>
        </mask>
        <g mask="url(#mask17_791_11418)">
            <path d="M6.13067 193.854C6.05272 193.632 6.07048 193.36 6.18324 193.045L6.20941 192.975C6.60306 191.968 7.63665 191.212 9.28334 190.725C10.5348 190.355 11.856 190.142 13.2976 190.082C12.814 190.288 12.3286 190.569 11.8597 190.915C11.217 191.391 10.6321 191.95 10.0665 192.49C9.62592 192.911 9.17045 193.346 8.69347 193.736C8.30667 194.052 7.84102 194.384 7.32095 194.456C6.86155 194.519 6.29082 194.311 6.13067 193.854Z" fill="#58B9FF"/>
        </g>
        <mask id="mask18_791_11418" style="mask-type:luminance" maskUnits="userSpaceOnUse" x="-14" y="-41" width="299" height="299">
            <path fill-rule="evenodd" clip-rule="evenodd" d="M-13.4766 -40.146V257.854H284.523V-40.146H-13.4766Z" fill="white"/>
        </mask>
        <g mask="url(#mask18_791_11418)">
            <path d="M19.4073 196.226C19.4107 196.184 19.3347 185.671 6.53892 176.778C6.43349 176.704 6.28872 176.73 6.21542 176.836C6.14217 176.941 6.16821 177.086 6.27359 177.159C12.5976 181.556 15.7595 186.332 17.3468 190.005C18.1402 191.842 18.5392 193.403 18.7398 194.503C18.8401 195.052 18.8908 195.487 18.9164 195.782C18.9292 195.93 18.9357 196.042 18.9391 196.118C18.9424 196.193 18.9425 196.228 18.9425 196.228C18.9431 196.356 19.0477 196.459 19.176 196.459C19.3044 196.458 19.4079 196.354 19.4073 196.226Z" fill="#00004B"/>
        </g>
        <mask id="mask19_791_11418" style="mask-type:luminance" maskUnits="userSpaceOnUse" x="-14" y="-41" width="299" height="299">
            <path fill-rule="evenodd" clip-rule="evenodd" d="M-13.4766 -40.146V257.854H284.523V-40.146H-13.4766Z" fill="white"/>
        </mask>
        <g mask="url(#mask19_791_11418)">
            <path d="M19.3852 196.128C19.3765 196.11 18.3872 193.993 16.0549 191.871C13.7244 189.749 10.0388 187.625 4.68258 187.626C4.55426 187.626 4.4502 187.731 4.4502 187.859C4.4502 187.987 4.55426 188.091 4.68258 188.091C9.91277 188.092 13.4732 190.153 15.7421 192.214C16.8756 193.246 17.6834 194.277 18.2067 195.05C18.4682 195.435 18.6587 195.756 18.7832 195.98C18.8454 196.091 18.8912 196.179 18.9211 196.238C18.9511 196.296 18.9641 196.324 18.9641 196.324C19.0184 196.441 19.1567 196.491 19.273 196.437C19.3892 196.383 19.4395 196.245 19.3852 196.128Z" fill="#00004B"/>
        </g>
        <mask id="mask20_791_11418" style="mask-type:luminance" maskUnits="userSpaceOnUse" x="-14" y="-41" width="299" height="299">
            <path fill-rule="evenodd" clip-rule="evenodd" d="M-13.4766 -40.146V257.854H284.523V-40.146H-13.4766Z" fill="white"/>
        </mask>
        <g mask="url(#mask20_791_11418)">
            <path d="M13.4308 189.953L13.3689 189.951C12.9866 189.951 10.887 190.102 6.94208 193.079C6.83963 193.156 6.81918 193.302 6.89648 193.404C6.97378 193.507 7.11951 193.527 7.22196 193.45C11.1125 190.515 13.1117 190.416 13.3689 190.416L13.3936 190.416H13.3976L13.4023 190.332L13.396 190.416H13.3976L13.4023 190.332L13.396 190.416C13.5239 190.426 13.6355 190.33 13.6451 190.202C13.6547 190.074 13.5587 189.962 13.4308 189.953Z" fill="#00004B"/>
        </g>
        <mask id="mask21_791_11418" style="mask-type:luminance" maskUnits="userSpaceOnUse" x="-14" y="-41" width="299" height="299">
            <path fill-rule="evenodd" clip-rule="evenodd" d="M-13.4766 -40.146V257.854H284.523V-40.146H-13.4766Z" fill="white"/>
        </mask>
        <g mask="url(#mask21_791_11418)">
            <path d="M155.633 196.223H43.49C40.3798 196.223 37.8584 193.702 37.8584 190.592V38.5229C37.8584 35.4124 40.3798 32.8913 43.49 32.8913H155.633C158.743 32.8913 161.265 35.4124 161.265 38.5229V190.592C161.265 193.702 158.743 196.223 155.633 196.223Z" fill="#58B9FF"/>
        </g>
        <mask id="mask22_791_11418" style="mask-type:luminance" maskUnits="userSpaceOnUse" x="-14" y="-41" width="299" height="299">
            <path fill-rule="evenodd" clip-rule="evenodd" d="M-13.4766 -40.146V257.854H284.523V-40.146H-13.4766Z" fill="white"/>
        </mask>
        <g mask="url(#mask22_791_11418)">
            <path d="M37.8584 72.6814V190.592C37.8584 193.702 40.3798 196.223 43.4901 196.223H155.633C158.743 196.223 161.265 193.702 161.265 190.592V167.321L37.8584 72.6814Z" fill="#3A7FFF"/>
        </g>
        <mask id="mask23_791_11418" style="mask-type:luminance" maskUnits="userSpaceOnUse" x="-14" y="-41" width="299" height="299">
            <path fill-rule="evenodd" clip-rule="evenodd" d="M-13.4766 -40.146V257.854H284.523V-40.146H-13.4766Z" fill="white"/>
        </mask>
        <g mask="url(#mask23_791_11418)">
            <path d="M151.792 188.685H47.3289C46.0578 188.685 45.0273 187.654 45.0273 186.383V42.726C45.0273 41.4547 46.0578 40.4242 47.3289 40.4242H151.792C153.063 40.4242 154.093 41.4547 154.093 42.726V186.383C154.093 187.654 153.063 188.685 151.792 188.685Z" fill="#F0F6F6"/>
        </g>
        <mask id="mask24_791_11418" style="mask-type:luminance" maskUnits="userSpaceOnUse" x="-14" y="-41" width="299" height="299">
            <path fill-rule="evenodd" clip-rule="evenodd" d="M-13.4766 -40.146V257.854H284.523V-40.146H-13.4766Z" fill="white"/>
        </mask>
        <g mask="url(#mask24_791_11418)">
            <path d="M108.915 29.805C108.923 29.6512 108.939 29.4992 108.939 29.3431C108.939 24.1638 104.74 19.9644 99.5607 19.9644C94.3808 19.9644 90.182 24.1638 90.182 29.3431C90.182 29.4992 90.1981 29.6512 90.2052 29.805H76.418V44.1018H122.703V29.805H108.915Z" fill="#0858FF"/>
        </g>
        <mask id="mask25_791_11418" style="mask-type:luminance" maskUnits="userSpaceOnUse" x="-14" y="-41" width="299" height="299">
            <path fill-rule="evenodd" clip-rule="evenodd" d="M-13.4766 -40.146V257.854H284.523V-40.146H-13.4766Z" fill="white"/>
        </mask>
        <g mask="url(#mask25_791_11418)">
            <path d="M76.418 29.805V44.1018H122.703L76.418 29.805Z" fill="#1977FF"/>
        </g>
        <mask id="mask26_791_11418" style="mask-type:luminance" maskUnits="userSpaceOnUse" x="-14" y="-41" width="299" height="299">
            <path fill-rule="evenodd" clip-rule="evenodd" d="M-13.4766 -40.146V257.854H284.523V-40.146H-13.4766Z" fill="white"/>
        </mask>
        <g mask="url(#mask26_791_11418)">
            <path d="M104.826 29.3464C104.826 32.2549 102.469 34.6127 99.5602 34.6127C96.6517 34.6127 94.2939 32.2549 94.2939 29.3464C94.2939 26.4379 96.6517 24.0802 99.5602 24.0802C102.469 24.0802 104.826 26.4379 104.826 29.3464Z" fill="#3A7FFF"/>
        </g>
        <mask id="mask27_791_11418" style="mask-type:luminance" maskUnits="userSpaceOnUse" x="-14" y="-41" width="299" height="299">
            <path fill-rule="evenodd" clip-rule="evenodd" d="M-13.4766 -40.146V257.854H284.523V-40.146H-13.4766Z" fill="white"/>
        </mask>
        <g mask="url(#mask27_791_11418)">
            <path d="M95.8365 25.6225C93.7797 27.6793 93.7797 31.0139 95.8365 33.0701C97.8927 35.1269 101.227 35.1269 103.284 33.0701L95.8365 25.6225Z" fill="#58B9FF"/>
        </g>
        <mask id="mask28_791_11418" style="mask-type:luminance" maskUnits="userSpaceOnUse" x="-14" y="-41" width="299" height="299">
            <path fill-rule="evenodd" clip-rule="evenodd" d="M-13.4766 -40.146V257.854H284.523V-40.146H-13.4766Z" fill="white"/>
        </mask>
        <g mask="url(#mask28_791_11418)">
            <path d="M122.703 45.0892H76.418V44.1046H122.703V45.0892Z" fill="#B2EBFC"/>
        </g>
        <mask id="mask29_791_11418" style="mask-type:luminance" maskUnits="userSpaceOnUse" x="-14" y="-41" width="299" height="299">
            <path fill-rule="evenodd" clip-rule="evenodd" d="M-13.4766 -40.146V257.854H284.523V-40.146H-13.4766Z" fill="white"/>
        </mask>
        <g mask="url(#mask29_791_11418)">
            <path d="M75.1852 81.4592V81.1612H57.928V64.202H74.8872V81.4592H75.1852H75.4832V63.606H57.332V81.7572H75.4832V81.4592H75.1852Z" fill="#0858FF"/>
        </g>
        <mask id="mask30_791_11418" style="mask-type:luminance" maskUnits="userSpaceOnUse" x="-14" y="-41" width="299" height="299">
            <path fill-rule="evenodd" clip-rule="evenodd" d="M-13.4766 -40.146V257.854H284.523V-40.146H-13.4766Z" fill="white"/>
        </mask>
        <g mask="url(#mask30_791_11418)">
            <path d="M62.0312 74.5145L68.2159 79.3701L79.8785 68.1343L78.224 66.4172L68.0562 76.2137L63.504 72.6395L62.0312 74.5145Z" fill="#F0F6F6"/>
        </g>
        <mask id="mask31_791_11418" style="mask-type:luminance" maskUnits="userSpaceOnUse" x="-14" y="-41" width="299" height="299">
            <path fill-rule="evenodd" clip-rule="evenodd" d="M-13.4766 -40.146V257.854H284.523V-40.146H-13.4766Z" fill="white"/>
        </mask>
        <g mask="url(#mask31_791_11418)">
            <path d="M60.8389 73.3263L67.0236 78.1819L78.6861 66.9461L77.0316 65.229L66.8638 75.0255L62.3116 71.4513L60.8389 73.3263Z" fill="#D1C4E9"/>
        </g>
        <mask id="mask32_791_11418" style="mask-type:luminance" maskUnits="userSpaceOnUse" x="-14" y="-41" width="299" height="299">
            <path fill-rule="evenodd" clip-rule="evenodd" d="M-13.4766 -40.146V257.854H284.523V-40.146H-13.4766Z" fill="white"/>
        </mask>
        <g mask="url(#mask32_791_11418)">
            <path d="M140.815 68.8832H83.6118C83.2387 68.8832 82.9365 68.5804 82.9365 68.2073C82.9365 67.8342 83.2387 67.5314 83.6118 67.5314H140.815C141.188 67.5314 141.491 67.8342 141.491 68.2073C141.491 68.5804 141.188 68.8832 140.815 68.8832Z" fill="#58B9FF"/>
        </g>
        <mask id="mask33_791_11418" style="mask-type:luminance" maskUnits="userSpaceOnUse" x="-14" y="-41" width="299" height="299">
            <path fill-rule="evenodd" clip-rule="evenodd" d="M-13.4766 -40.146V257.854H284.523V-40.146H-13.4766Z" fill="white"/>
        </mask>
        <g mask="url(#mask33_791_11418)">
            <path d="M140.815 71.8661H83.6118C83.2387 71.8661 82.9365 71.5633 82.9365 71.1902C82.9365 70.8171 83.2387 70.5149 83.6118 70.5149H140.815C141.188 70.5149 141.491 70.8171 141.491 71.1902C141.491 71.5633 141.188 71.8661 140.815 71.8661Z" fill="#58B9FF"/>
        </g>
        <mask id="mask34_791_11418" style="mask-type:luminance" maskUnits="userSpaceOnUse" x="-14" y="-41" width="299" height="299">
            <path fill-rule="evenodd" clip-rule="evenodd" d="M-13.4766 -40.146V257.854H284.523V-40.146H-13.4766Z" fill="white"/>
        </mask>
        <g mask="url(#mask34_791_11418)">
            <path d="M140.815 74.8456H83.6118C83.2387 74.8456 82.9365 74.5434 82.9365 74.1703C82.9365 73.7966 83.2387 73.4944 83.6118 73.4944H140.815C141.188 73.4944 141.491 73.7966 141.491 74.1703C141.491 74.5434 141.188 74.8456 140.815 74.8456Z" fill="#58B9FF"/>
        </g>
        <mask id="mask35_791_11418" style="mask-type:luminance" maskUnits="userSpaceOnUse" x="-14" y="-41" width="299" height="299">
            <path fill-rule="evenodd" clip-rule="evenodd" d="M-13.4766 -40.146V257.854H284.523V-40.146H-13.4766Z" fill="white"/>
        </mask>
        <g mask="url(#mask35_791_11418)">
            <path d="M140.815 77.825H83.6118C83.2387 77.825 82.9365 77.5228 82.9365 77.1497C82.9365 76.7766 83.2387 76.4738 83.6118 76.4738H140.815C141.188 76.4738 141.491 76.7766 141.491 77.1497C141.491 77.5228 141.188 77.825 140.815 77.825Z" fill="#58B9FF"/>
        </g>
        <mask id="mask36_791_11418" style="mask-type:luminance" maskUnits="userSpaceOnUse" x="-14" y="-41" width="299" height="299">
            <path fill-rule="evenodd" clip-rule="evenodd" d="M-13.4766 -40.146V257.854H284.523V-40.146H-13.4766Z" fill="white"/>
        </mask>
        <g mask="url(#mask36_791_11418)">
            <path d="M75.1852 109.719V109.421H57.928V92.4623H74.8872V109.719H75.1852H75.4832V91.8663H57.332V110.017H75.4832V109.719H75.1852Z" fill="#0858FF"/>
        </g>
        <mask id="mask37_791_11418" style="mask-type:luminance" maskUnits="userSpaceOnUse" x="-14" y="-41" width="299" height="299">
            <path fill-rule="evenodd" clip-rule="evenodd" d="M-13.4766 -40.146V257.854H284.523V-40.146H-13.4766Z" fill="white"/>
        </mask>
        <g mask="url(#mask37_791_11418)">
            <path d="M62.0312 102.778L68.2159 107.633L79.8785 96.3975L78.224 94.681L68.0562 104.477L63.504 100.903L62.0312 102.778Z" fill="#F0F6F6"/>
        </g>
        <mask id="mask38_791_11418" style="mask-type:luminance" maskUnits="userSpaceOnUse" x="-14" y="-41" width="299" height="299">
            <path fill-rule="evenodd" clip-rule="evenodd" d="M-13.4766 -40.146V257.854H284.523V-40.146H-13.4766Z" fill="white"/>
        </mask>
        <g mask="url(#mask38_791_11418)">
            <path d="M60.8389 101.583L67.0236 106.438L78.6861 95.2022L77.0316 93.4857L66.8638 103.282L62.3116 99.7074L60.8389 101.583Z" fill="#D1C4E9"/>
        </g>
        <mask id="mask39_791_11418" style="mask-type:luminance" maskUnits="userSpaceOnUse" x="-14" y="-41" width="299" height="299">
            <path fill-rule="evenodd" clip-rule="evenodd" d="M-13.4766 -40.146V257.854H284.523V-40.146H-13.4766Z" fill="white"/>
        </mask>
        <g mask="url(#mask39_791_11418)">
            <path d="M140.815 97.1498H83.6118C83.2387 97.1498 82.9365 96.8476 82.9365 96.4745C82.9365 96.1014 83.2387 95.7987 83.6118 95.7987H140.815C141.188 95.7987 141.491 96.1014 141.491 96.4745C141.491 96.8476 141.188 97.1498 140.815 97.1498Z" fill="#58B9FF"/>
        </g>
        <mask id="mask40_791_11418" style="mask-type:luminance" maskUnits="userSpaceOnUse" x="-14" y="-41" width="299" height="299">
            <path fill-rule="evenodd" clip-rule="evenodd" d="M-13.4766 -40.146V257.854H284.523V-40.146H-13.4766Z" fill="white"/>
        </mask>
        <g mask="url(#mask40_791_11418)">
            <path d="M140.815 100.126H83.6118C83.2387 100.126 82.9365 99.823 82.9365 99.4499C82.9365 99.0768 83.2387 98.774 83.6118 98.774H140.815C141.188 98.774 141.491 99.0768 141.491 99.4499C141.491 99.823 141.188 100.126 140.815 100.126Z" fill="#58B9FF"/>
        </g>
        <mask id="mask41_791_11418" style="mask-type:luminance" maskUnits="userSpaceOnUse" x="-14" y="-41" width="299" height="299">
            <path fill-rule="evenodd" clip-rule="evenodd" d="M-13.4766 -40.146V257.854H284.523V-40.146H-13.4766Z" fill="white"/>
        </mask>
        <g mask="url(#mask41_791_11418)">
            <path d="M140.815 103.109H83.6118C83.2387 103.109 82.9365 102.806 82.9365 102.433C82.9365 102.06 83.2387 101.757 83.6118 101.757H140.815C141.188 101.757 141.491 102.06 141.491 102.433C141.491 102.806 141.188 103.109 140.815 103.109Z" fill="#58B9FF"/>
        </g>
        <mask id="mask42_791_11418" style="mask-type:luminance" maskUnits="userSpaceOnUse" x="-14" y="-41" width="299" height="299">
            <path fill-rule="evenodd" clip-rule="evenodd" d="M-13.4766 -40.146V257.854H284.523V-40.146H-13.4766Z" fill="white"/>
        </mask>
        <g mask="url(#mask42_791_11418)">
            <path d="M140.815 106.085H83.6118C83.2387 106.085 82.9365 105.782 82.9365 105.409C82.9365 105.036 83.2387 104.734 83.6118 104.734H140.815C141.188 104.734 141.491 105.036 141.491 105.409C141.491 105.782 141.188 106.085 140.815 106.085Z" fill="#58B9FF"/>
        </g>
        <mask id="mask43_791_11418" style="mask-type:luminance" maskUnits="userSpaceOnUse" x="-14" y="-41" width="299" height="299">
            <path fill-rule="evenodd" clip-rule="evenodd" d="M-13.4766 -40.146V257.854H284.523V-40.146H-13.4766Z" fill="white"/>
        </mask>
        <g mask="url(#mask43_791_11418)">
            <path d="M75.1852 137.979V137.681H57.928V120.721H74.8872V137.979H75.1852H75.4832V120.125H57.332V138.277H75.4832V137.979H75.1852Z" fill="#0858FF"/>
        </g>
        <mask id="mask44_791_11418" style="mask-type:luminance" maskUnits="userSpaceOnUse" x="-14" y="-41" width="299" height="299">
            <path fill-rule="evenodd" clip-rule="evenodd" d="M-13.4766 -40.146V257.854H284.523V-40.146H-13.4766Z" fill="white"/>
        </mask>
        <g mask="url(#mask44_791_11418)">
            <path d="M62.0312 131.037L68.2159 135.893L79.8785 124.657L78.224 122.94L68.0562 132.737L63.504 129.162L62.0312 131.037Z" fill="#F0F6F6"/>
        </g>
        <mask id="mask45_791_11418" style="mask-type:luminance" maskUnits="userSpaceOnUse" x="-14" y="-41" width="299" height="299">
            <path fill-rule="evenodd" clip-rule="evenodd" d="M-13.4766 -40.146V257.854H284.523V-40.146H-13.4766Z" fill="white"/>
        </mask>
        <g mask="url(#mask45_791_11418)">
            <path d="M60.8389 129.842L67.0236 134.698L78.6861 123.462L77.0316 121.745L66.8638 131.541L62.3116 127.967L60.8389 129.842Z" fill="#D1C4E9"/>
        </g>
        <mask id="mask46_791_11418" style="mask-type:luminance" maskUnits="userSpaceOnUse" x="-14" y="-41" width="299" height="299">
            <path fill-rule="evenodd" clip-rule="evenodd" d="M-13.4766 -40.146V257.854H284.523V-40.146H-13.4766Z" fill="white"/>
        </mask>
        <g mask="url(#mask46_791_11418)">
            <path d="M140.815 125.41H83.6118C83.2387 125.41 82.9365 125.107 82.9365 124.734C82.9365 124.361 83.2387 124.058 83.6118 124.058H140.815C141.188 124.058 141.491 124.361 141.491 124.734C141.491 125.107 141.188 125.41 140.815 125.41Z" fill="#58B9FF"/>
        </g>
        <mask id="mask47_791_11418" style="mask-type:luminance" maskUnits="userSpaceOnUse" x="-14" y="-41" width="299" height="299">
            <path fill-rule="evenodd" clip-rule="evenodd" d="M-13.4766 -40.146V257.854H284.523V-40.146H-13.4766Z" fill="white"/>
        </mask>
        <g mask="url(#mask47_791_11418)">
            <path d="M140.815 128.385H83.6118C83.2387 128.385 82.9365 128.083 82.9365 127.71C82.9365 127.337 83.2387 127.034 83.6118 127.034H140.815C141.188 127.034 141.491 127.337 141.491 127.71C141.491 128.083 141.188 128.385 140.815 128.385Z" fill="#58B9FF"/>
        </g>
        <mask id="mask48_791_11418" style="mask-type:luminance" maskUnits="userSpaceOnUse" x="-14" y="-41" width="299" height="299">
            <path fill-rule="evenodd" clip-rule="evenodd" d="M-13.4766 -40.146V257.854H284.523V-40.146H-13.4766Z" fill="white"/>
        </mask>
        <g mask="url(#mask48_791_11418)">
            <path d="M140.815 131.368H83.6118C83.2387 131.368 82.9365 131.066 82.9365 130.693C82.9365 130.319 83.2387 130.017 83.6118 130.017H140.815C141.188 130.017 141.491 130.319 141.491 130.693C141.491 131.066 141.188 131.368 140.815 131.368Z" fill="#58B9FF"/>
        </g>
        <mask id="mask49_791_11418" style="mask-type:luminance" maskUnits="userSpaceOnUse" x="-14" y="-41" width="299" height="299">
            <path fill-rule="evenodd" clip-rule="evenodd" d="M-13.4766 -40.146V257.854H284.523V-40.146H-13.4766Z" fill="white"/>
        </mask>
        <g mask="url(#mask49_791_11418)">
            <path d="M140.815 134.348H83.6118C83.2387 134.348 82.9365 134.046 82.9365 133.673C82.9365 133.3 83.2387 132.997 83.6118 132.997H140.815C141.188 132.997 141.491 133.3 141.491 133.673C141.491 134.046 141.188 134.348 140.815 134.348Z" fill="#58B9FF"/>
        </g>
        <mask id="mask50_791_11418" style="mask-type:luminance" maskUnits="userSpaceOnUse" x="-14" y="-41" width="299" height="299">
            <path fill-rule="evenodd" clip-rule="evenodd" d="M-13.4766 -40.146V257.854H284.523V-40.146H-13.4766Z" fill="white"/>
        </mask>
        <g mask="url(#mask50_791_11418)">
            <path d="M75.1852 166.238V165.94H57.928V148.982H74.8872V166.238H75.1852H75.4832V148.386H57.332V166.536H75.4832V166.238H75.1852Z" fill="#0858FF"/>
        </g>
        <mask id="mask51_791_11418" style="mask-type:luminance" maskUnits="userSpaceOnUse" x="-14" y="-41" width="299" height="299">
            <path fill-rule="evenodd" clip-rule="evenodd" d="M-13.4766 -40.146V257.854H284.523V-40.146H-13.4766Z" fill="white"/>
        </mask>
        <g mask="url(#mask51_791_11418)">
            <path d="M62.0312 159.298L68.2159 164.153L79.8785 152.917L78.224 151.2L68.0562 160.996L63.504 157.422L62.0312 159.298Z" fill="#F0F6F6"/>
        </g>
        <mask id="mask52_791_11418" style="mask-type:luminance" maskUnits="userSpaceOnUse" x="-14" y="-41" width="299" height="299">
            <path fill-rule="evenodd" clip-rule="evenodd" d="M-13.4766 -40.146V257.854H284.523V-40.146H-13.4766Z" fill="white"/>
        </mask>
        <g mask="url(#mask52_791_11418)">
            <path d="M60.8389 158.109L67.0236 162.964L78.6861 151.729L77.0316 150.012L66.8638 159.808L62.3116 156.234L60.8389 158.109Z" fill="#D1C4E9"/>
        </g>
        <mask id="mask53_791_11418" style="mask-type:luminance" maskUnits="userSpaceOnUse" x="-14" y="-41" width="299" height="299">
            <path fill-rule="evenodd" clip-rule="evenodd" d="M-13.4766 -40.146V257.854H284.523V-40.146H-13.4766Z" fill="white"/>
        </mask>
        <g mask="url(#mask53_791_11418)">
            <path d="M140.815 153.669H83.6118C83.2387 153.669 82.9365 153.367 82.9365 152.994C82.9365 152.621 83.2387 152.318 83.6118 152.318H140.815C141.188 152.318 141.491 152.621 141.491 152.994C141.491 153.367 141.188 153.669 140.815 153.669Z" fill="#58B9FF"/>
        </g>
        <mask id="mask54_791_11418" style="mask-type:luminance" maskUnits="userSpaceOnUse" x="-14" y="-41" width="299" height="299">
            <path fill-rule="evenodd" clip-rule="evenodd" d="M-13.4766 -40.146V257.854H284.523V-40.146H-13.4766Z" fill="white"/>
        </mask>
        <g mask="url(#mask54_791_11418)">
            <path d="M140.815 156.652H83.6118C83.2387 156.652 82.9365 156.349 82.9365 155.976C82.9365 155.603 83.2387 155.3 83.6118 155.3H140.815C141.188 155.3 141.491 155.603 141.491 155.976C141.491 156.349 141.188 156.652 140.815 156.652Z" fill="#58B9FF"/>
        </g>
        <mask id="mask55_791_11418" style="mask-type:luminance" maskUnits="userSpaceOnUse" x="-14" y="-41" width="299" height="299">
            <path fill-rule="evenodd" clip-rule="evenodd" d="M-13.4766 -40.146V257.854H284.523V-40.146H-13.4766Z" fill="white"/>
        </mask>
        <g mask="url(#mask55_791_11418)">
            <path d="M140.815 159.628H83.6118C83.2387 159.628 82.9365 159.325 82.9365 158.952C82.9365 158.579 83.2387 158.276 83.6118 158.276H140.815C141.188 158.276 141.491 158.579 141.491 158.952C141.491 159.325 141.188 159.628 140.815 159.628Z" fill="#58B9FF"/>
        </g>
        <mask id="mask56_791_11418" style="mask-type:luminance" maskUnits="userSpaceOnUse" x="-14" y="-41" width="299" height="299">
            <path fill-rule="evenodd" clip-rule="evenodd" d="M-13.4766 -40.146V257.854H284.523V-40.146H-13.4766Z" fill="white"/>
        </mask>
        <g mask="url(#mask56_791_11418)">
            <path d="M140.815 162.611H83.6118C83.2387 162.611 82.9365 162.308 82.9365 161.935C82.9365 161.562 83.2387 161.26 83.6118 161.26H140.815C141.188 161.26 141.491 161.562 141.491 161.935C141.491 162.308 141.188 162.611 140.815 162.611Z" fill="#58B9FF"/>
        </g>
        <mask id="mask57_791_11418" style="mask-type:luminance" maskUnits="userSpaceOnUse" x="-14" y="-41" width="299" height="299">
            <path fill-rule="evenodd" clip-rule="evenodd" d="M-13.4766 -40.146V257.854H284.523V-40.146H-13.4766Z" fill="white"/>
        </mask>
        <g mask="url(#mask57_791_11418)">
            <path d="M166.277 78.9598C165.912 79.2387 162.604 81.1924 162.604 81.1924L160.256 78.1862L160.954 74.7586L166.008 75.0739L166.892 77.6325C167.102 78.2398 166.728 78.6153 166.277 78.9598Z" fill="#FF6E95"/>
        </g>
        <mask id="mask58_791_11418" style="mask-type:luminance" maskUnits="userSpaceOnUse" x="-14" y="-41" width="299" height="299">
            <path fill-rule="evenodd" clip-rule="evenodd" d="M-13.4766 -40.146V257.854H284.523V-40.146H-13.4766Z" fill="white"/>
        </mask>
        <g mask="url(#mask58_791_11418)">
            <path d="M166.009 75.0738L166.771 77.316L164.44 78.2547C163.996 78.4472 163.5 78.4835 163.033 78.3578C162.005 78.0812 161.337 77.0907 161.466 76.034L161.617 74.8014L166.009 75.0738Z" fill="#FF4684"/>
        </g>
        <mask id="mask59_791_11418" style="mask-type:luminance" maskUnits="userSpaceOnUse" x="-14" y="-41" width="299" height="299">
            <path fill-rule="evenodd" clip-rule="evenodd" d="M-13.4766 -40.146V257.854H284.523V-40.146H-13.4766Z" fill="white"/>
        </mask>
        <g mask="url(#mask59_791_11418)">
            <path d="M164.864 78.0745L166.885 78.3689L167.992 76.4724C168.208 76.1303 168.105 75.6774 167.763 75.4616C167.42 75.2452 166.968 75.3477 166.752 75.6905L164.864 78.0745Z" fill="#D1C4E9"/>
        </g>
        <mask id="mask60_791_11418" style="mask-type:luminance" maskUnits="userSpaceOnUse" x="-14" y="-41" width="299" height="299">
            <path fill-rule="evenodd" clip-rule="evenodd" d="M-13.4766 -40.146V257.854H284.523V-40.146H-13.4766Z" fill="white"/>
        </mask>
        <g mask="url(#mask60_791_11418)">
            <path d="M163.334 86.1766L159.168 87.2297L157.678 99.2928L162.555 99.4918L163.334 86.1766Z" fill="white"/>
        </g>
        <mask id="mask61_791_11418" style="mask-type:luminance" maskUnits="userSpaceOnUse" x="-14" y="-41" width="299" height="299">
            <path fill-rule="evenodd" clip-rule="evenodd" d="M-13.4766 -40.146V257.854H284.523V-40.146H-13.4766Z" fill="white"/>
        </mask>
        <g mask="url(#mask61_791_11418)">
            <path d="M218.108 95.9709L210.825 95.0542L212.492 81.8147L219.775 82.7313C223.431 83.1914 226.021 86.5284 225.561 90.1843C225.101 93.8408 221.764 96.431 218.108 95.9709Z" fill="#FF6E95"/>
        </g>
        <mask id="mask62_791_11418" style="mask-type:luminance" maskUnits="userSpaceOnUse" x="-14" y="-41" width="299" height="299">
            <path fill-rule="evenodd" clip-rule="evenodd" d="M-13.4766 -40.146V257.854H284.523V-40.146H-13.4766Z" fill="white"/>
        </mask>
        <g mask="url(#mask62_791_11418)">
            <path d="M218.952 96.0238C222.232 96.022 225.081 93.6034 225.547 90.2807C225.081 93.6034 222.233 96.0226 218.952 96.0238Z" fill="#D2DFDE"/>
        </g>
        <mask id="mask63_791_11418" style="mask-type:luminance" maskUnits="userSpaceOnUse" x="-14" y="-41" width="299" height="299">
            <path fill-rule="evenodd" clip-rule="evenodd" d="M-13.4766 -40.146V257.854H284.523V-40.146H-13.4766Z" fill="white"/>
        </mask>
        <g mask="url(#mask63_791_11418)">
            <path d="M218.95 96.0238C218.949 96.0238 218.949 96.0238 218.949 96.0238C218.68 96.0238 218.408 96.0077 218.135 95.9743C218.134 95.9743 218.133 95.9737 218.133 95.9737C218.124 95.9731 218.116 95.9719 218.108 95.9707L216.333 95.7472L216.578 93.8043L216.713 92.7315L218.487 92.955C218.77 92.9907 219.051 93.008 219.329 93.008C222.133 93.008 224.62 91.2415 225.576 88.6543C225.626 89.1358 225.626 89.6299 225.568 90.1306C225.567 90.1329 225.567 90.1347 225.567 90.1371C225.567 90.1401 225.566 90.1424 225.566 90.1454C225.565 90.1508 225.565 90.1562 225.564 90.1615C225.564 90.1627 225.564 90.1639 225.564 90.1657C225.562 90.1717 225.562 90.1782 225.561 90.1842C225.56 90.1985 225.558 90.2122 225.556 90.2265C225.554 90.2444 225.551 90.2629 225.548 90.2807C225.082 93.6034 222.233 96.022 218.953 96.0238C218.952 96.0238 218.951 96.0238 218.95 96.0238Z" fill="#FF6281"/>
        </g>
        <mask id="mask64_791_11418" style="mask-type:luminance" maskUnits="userSpaceOnUse" x="-14" y="-41" width="299" height="299">
            <path fill-rule="evenodd" clip-rule="evenodd" d="M-13.4766 -40.146V257.854H284.523V-40.146H-13.4766Z" fill="white"/>
        </mask>
        <g mask="url(#mask64_791_11418)">
            <path d="M209.938 94.9395L132.676 84.9731L134.343 71.7336L211.604 81.6999L209.938 94.9395Z" fill="#EEA836"/>
        </g>
        <mask id="mask65_791_11418" style="mask-type:luminance" maskUnits="userSpaceOnUse" x="-14" y="-41" width="299" height="299">
            <path fill-rule="evenodd" clip-rule="evenodd" d="M-13.4766 -40.146V257.854H284.523V-40.146H-13.4766Z" fill="white"/>
        </mask>
        <g mask="url(#mask65_791_11418)">
            <path d="M118.912 76.5219L132.676 84.9791L134.343 71.7396L118.912 76.5219Z" fill="#FFF1D6"/>
        </g>
        <mask id="mask66_791_11418" style="mask-type:luminance" maskUnits="userSpaceOnUse" x="-14" y="-41" width="299" height="299">
            <path fill-rule="evenodd" clip-rule="evenodd" d="M-13.4766 -40.146V257.854H284.523V-40.146H-13.4766Z" fill="white"/>
        </mask>
        <g mask="url(#mask66_791_11418)">
            <path d="M132.676 84.9791L118.912 76.5219L133.084 81.741L132.676 84.9791Z" fill="#E3D9BE"/>
        </g>
        <mask id="mask67_791_11418" style="mask-type:luminance" maskUnits="userSpaceOnUse" x="-14" y="-41" width="299" height="299">
            <path fill-rule="evenodd" clip-rule="evenodd" d="M-13.4766 -40.146V257.854H284.523V-40.146H-13.4766Z" fill="white"/>
        </mask>
        <g mask="url(#mask67_791_11418)">
            <path d="M123.508 75.0909L118.912 76.5154L123.011 79.0341L123.508 75.0909Z" fill="#00004B"/>
        </g>
        <mask id="mask68_791_11418" style="mask-type:luminance" maskUnits="userSpaceOnUse" x="-14" y="-41" width="299" height="299">
            <path fill-rule="evenodd" clip-rule="evenodd" d="M-13.4766 -40.146V257.854H284.523V-40.146H-13.4766Z" fill="white"/>
        </mask>
        <g mask="url(#mask68_791_11418)">
            <path d="M216.333 95.7467L209.938 94.9415L211.604 81.702L217.999 82.5071L216.333 95.7467Z" fill="#C1FFF3"/>
        </g>
        <mask id="mask69_791_11418" style="mask-type:luminance" maskUnits="userSpaceOnUse" x="-14" y="-41" width="299" height="299">
            <path fill-rule="evenodd" clip-rule="evenodd" d="M-13.4766 -40.146V257.854H284.523V-40.146H-13.4766Z" fill="white"/>
        </mask>
        <g mask="url(#mask69_791_11418)">
            <path d="M216.261 96.3148L214.075 96.04L215.885 81.6663L218.071 81.9417L216.261 96.3148Z" fill="#C1FFF3"/>
        </g>
        <mask id="mask70_791_11418" style="mask-type:luminance" maskUnits="userSpaceOnUse" x="-14" y="-41" width="299" height="299">
            <path fill-rule="evenodd" clip-rule="evenodd" d="M-13.4766 -40.146V257.854H284.523V-40.146H-13.4766Z" fill="white"/>
        </mask>
        <g mask="url(#mask70_791_11418)">
            <path d="M209.939 94.9257L132.676 84.9713L133.083 81.7332L210.346 91.6876L209.939 94.9257Z" fill="#F8AA31"/>
        </g>
        <mask id="mask71_791_11418" style="mask-type:luminance" maskUnits="userSpaceOnUse" x="-14" y="-41" width="299" height="299">
            <path fill-rule="evenodd" clip-rule="evenodd" d="M-13.4766 -40.146V257.854H284.523V-40.146H-13.4766Z" fill="white"/>
        </mask>
        <g mask="url(#mask71_791_11418)">
            <path d="M214.147 95.473L209.939 94.9307L210.347 91.6926L214.554 92.2344L214.543 92.3273L214.147 95.473Z" fill="#A8E7DE"/>
        </g>
        <mask id="mask72_791_11418" style="mask-type:luminance" maskUnits="userSpaceOnUse" x="-14" y="-41" width="299" height="299">
            <path fill-rule="evenodd" clip-rule="evenodd" d="M-13.4766 -40.146V257.854H284.523V-40.146H-13.4766Z" fill="white"/>
        </mask>
        <g mask="url(#mask72_791_11418)">
            <path d="M211.604 81.701L168.105 76.0902C168.105 76.0884 168.105 76.0867 168.105 76.0849L215.802 82.2296L211.604 81.701ZM166.587 75.8941L166.278 75.8542L166.276 75.8489L166.59 75.8894L166.587 75.8941Z" fill="#E8F1F0"/>
        </g>
        <mask id="mask73_791_11418" style="mask-type:luminance" maskUnits="userSpaceOnUse" x="-14" y="-41" width="299" height="299">
            <path fill-rule="evenodd" clip-rule="evenodd" d="M-13.4766 -40.146V257.854H284.523V-40.146H-13.4766Z" fill="white"/>
        </mask>
        <g mask="url(#mask73_791_11418)">
            <path d="M160.875 75.1573L154.095 74.2824V74.2794L160.875 75.1532L160.875 75.1573Z" fill="#54B5FF"/>
        </g>
        <mask id="mask74_791_11418" style="mask-type:luminance" maskUnits="userSpaceOnUse" x="-14" y="-41" width="299" height="299">
            <path fill-rule="evenodd" clip-rule="evenodd" d="M-13.4766 -40.146V257.854H284.523V-40.146H-13.4766Z" fill="white"/>
        </mask>
        <g mask="url(#mask74_791_11418)">
            <path d="M154.093 74.2808L135.357 71.864H135.359L154.093 74.2778V74.2808Z" fill="#E8F1F0"/>
        </g>
        <mask id="mask75_791_11418" style="mask-type:luminance" maskUnits="userSpaceOnUse" x="-14" y="-41" width="299" height="299">
            <path fill-rule="evenodd" clip-rule="evenodd" d="M-13.4766 -40.146V257.854H284.523V-40.146H-13.4766Z" fill="white"/>
        </mask>
        <g mask="url(#mask75_791_11418)">
            <path d="M135.359 71.8661H135.358L134.343 71.7349L135.359 71.8661Z" fill="#54B5FF"/>
        </g>
        <mask id="mask76_791_11418" style="mask-type:luminance" maskUnits="userSpaceOnUse" x="-14" y="-41" width="299" height="299">
            <path fill-rule="evenodd" clip-rule="evenodd" d="M-13.4766 -40.146V257.854H284.523V-40.146H-13.4766Z" fill="white"/>
        </mask>
        <g mask="url(#mask76_791_11418)">
            <path d="M166.279 75.8502L166.274 75.8496L166.272 75.8443L166.277 75.8449L166.279 75.8502ZM161.562 75.2417L160.874 75.1535L160.875 75.1493L161.563 75.2375L161.562 75.2417Z" fill="#FF6B90"/>
        </g>
        <mask id="mask77_791_11418" style="mask-type:luminance" maskUnits="userSpaceOnUse" x="-14" y="-41" width="299" height="299">
            <path fill-rule="evenodd" clip-rule="evenodd" d="M-13.4766 -40.146V257.854H284.523V-40.146H-13.4766Z" fill="white"/>
        </mask>
        <g mask="url(#mask77_791_11418)">
            <path d="M166.274 75.8502L161.562 75.2423L161.563 75.2381L166.272 75.8449L166.274 75.8502Z" fill="#FF447F"/>
        </g>
        <mask id="mask78_791_11418" style="mask-type:luminance" maskUnits="userSpaceOnUse" x="-14" y="-41" width="299" height="299">
            <path fill-rule="evenodd" clip-rule="evenodd" d="M-13.4766 -40.146V257.854H284.523V-40.146H-13.4766Z" fill="white"/>
        </mask>
        <g mask="url(#mask78_791_11418)">
            <path d="M168.105 76.0928L166.587 75.8967L166.59 75.8919L168.105 76.0874C168.105 76.0892 168.105 76.091 168.105 76.0928Z" fill="#FF4D89"/>
        </g>
        <mask id="mask79_791_11418" style="mask-type:luminance" maskUnits="userSpaceOnUse" x="-14" y="-41" width="299" height="299">
            <path fill-rule="evenodd" clip-rule="evenodd" d="M-13.4766 -40.146V257.854H284.523V-40.146H-13.4766Z" fill="white"/>
        </mask>
        <g mask="url(#mask79_791_11418)">
            <path d="M211.199 84.9271L133.936 74.9733L134.343 71.7347L135.358 71.8658L154.094 74.2826L160.874 75.1575L161.563 75.2457L166.274 75.8536L166.279 75.8542L166.587 75.8941L168.105 76.0902L211.604 81.701L211.199 84.9271Z" fill="#FFB63F"/>
        </g>
        <mask id="mask80_791_11418" style="mask-type:luminance" maskUnits="userSpaceOnUse" x="-14" y="-41" width="299" height="299">
            <path fill-rule="evenodd" clip-rule="evenodd" d="M-13.4766 -40.146V257.854H284.523V-40.146H-13.4766Z" fill="white"/>
        </mask>
        <g mask="url(#mask80_791_11418)">
            <path d="M215.405 85.4677L211.198 84.9253L211.604 81.6991L215.802 82.2278L215.813 82.229L215.405 85.4677Z" fill="#BAFBEE"/>
        </g>
        <mask id="mask81_791_11418" style="mask-type:luminance" maskUnits="userSpaceOnUse" x="-14" y="-41" width="299" height="299">
            <path fill-rule="evenodd" clip-rule="evenodd" d="M-13.4766 -40.146V257.854H284.523V-40.146H-13.4766Z" fill="white"/>
        </mask>
        <g mask="url(#mask81_791_11418)">
            <path d="M216.332 95.7467L216.814 91.9204L216.712 92.7309L216.577 93.8037L216.332 95.7467ZM214.146 95.4719L214.542 92.3263L214.548 92.278L214.146 95.4719Z" fill="#AEEFE3"/>
        </g>
        <mask id="mask82_791_11418" style="mask-type:luminance" maskUnits="userSpaceOnUse" x="-14" y="-41" width="299" height="299">
            <path fill-rule="evenodd" clip-rule="evenodd" d="M-13.4766 -40.146V257.854H284.523V-40.146H-13.4766Z" fill="white"/>
        </mask>
        <g mask="url(#mask82_791_11418)">
            <path d="M216.261 96.3148L214.075 96.04L214.146 95.4733L214.548 92.2793L214.554 92.2346L214.628 91.6463L216.814 91.9217L216.333 95.748L216.261 96.3148Z" fill="#AEEFE3"/>
        </g>
        <mask id="mask83_791_11418" style="mask-type:luminance" maskUnits="userSpaceOnUse" x="-14" y="-41" width="299" height="299">
            <path fill-rule="evenodd" clip-rule="evenodd" d="M-13.4766 -40.146V257.854H284.523V-40.146H-13.4766Z" fill="white"/>
        </mask>
        <g mask="url(#mask83_791_11418)">
            <path d="M214.542 92.3237L214.553 92.2313L214.548 92.2757L214.542 92.3237Z" fill="#98D3CD"/>
        </g>
        <mask id="mask84_791_11418" style="mask-type:luminance" maskUnits="userSpaceOnUse" x="-14" y="-41" width="299" height="299">
            <path fill-rule="evenodd" clip-rule="evenodd" d="M-13.4766 -40.146V257.854H284.523V-40.146H-13.4766Z" fill="white"/>
        </mask>
        <g mask="url(#mask84_791_11418)">
            <path d="M184.59 121.751L185.688 118.93L189.366 118.642C190.043 118.57 190.642 118.98 190.704 119.559C190.767 120.139 190.269 120.668 189.592 120.741L184.59 121.751Z" fill="#FF4684"/>
        </g>
        <mask id="mask85_791_11418" style="mask-type:luminance" maskUnits="userSpaceOnUse" x="-14" y="-41" width="299" height="299">
            <path fill-rule="evenodd" clip-rule="evenodd" d="M-13.4766 -40.146V257.854H284.523V-40.146H-13.4766Z" fill="white"/>
        </mask>
        <g mask="url(#mask85_791_11418)">
            <path d="M182.695 118.944L184.59 121.751L188.198 121.023L184.178 115.007L183.399 115.52C182.259 116.271 181.944 117.804 182.695 118.944Z" fill="#D1C4E9"/>
        </g>
        <mask id="mask86_791_11418" style="mask-type:luminance" maskUnits="userSpaceOnUse" x="-14" y="-41" width="299" height="299">
            <path fill-rule="evenodd" clip-rule="evenodd" d="M-13.4766 -40.146V257.854H284.523V-40.146H-13.4766Z" fill="white"/>
        </mask>
        <g mask="url(#mask86_791_11418)">
            <path d="M186.244 73.7251C182.498 68.2634 173.06 69.7206 173.305 78.4711L173.309 78.5497C173.287 79.6595 173.323 80.7889 173.033 81.8331C172.886 82.3606 172.632 82.8517 172.247 83.2057C171.866 83.5639 171.371 83.7749 170.85 83.8857C170.323 84.0026 169.755 84.0317 169.17 84.1486C168.581 84.269 168.007 84.4841 167.487 84.7934C166.445 85.4008 165.593 86.3955 165.203 87.5738C164.456 89.9113 165.054 92.6142 166.814 94.3718C167.256 94.8033 167.769 95.1704 168.332 95.4327C168.894 95.7062 169.533 95.8087 170.051 95.913C171.14 96.1508 172.242 96.4655 173.367 96.6866L173.398 96.5895C172.362 96.1115 171.341 95.6102 170.244 95.2306C169.671 95.0297 169.18 94.9135 168.737 94.6388C168.294 94.3783 167.885 94.0571 167.541 93.6685C166.849 92.899 166.344 91.9502 166.056 90.9364C165.769 89.925 165.71 88.8302 165.995 87.8235C166.275 86.8222 166.951 85.9503 167.844 85.371C168.287 85.0795 168.783 84.8685 169.301 84.738C169.825 84.6069 170.396 84.5527 170.974 84.3995C171.555 84.2505 172.125 83.9573 172.548 83.5073C172.976 83.0591 173.221 82.4816 173.342 81.9106C173.427 81.5023 173.464 81.0959 173.477 80.6906C173.579 82.3218 173.438 83.9781 171.76 84.6045C170.793 84.9663 169.851 84.9663 168.952 85.5665C168.071 86.1541 167.372 87.0243 167.03 88.0303C165.979 91.1259 168.72 95.1293 171.943 95.4714C173.277 95.6132 174.611 95.9363 175.93 96.1729C176.299 96.239 181.486 97.3023 181.529 97.1777L187.53 79.4128L186.244 73.7251Z" fill="#0858FF"/>
        </g>
        <mask id="mask87_791_11418" style="mask-type:luminance" maskUnits="userSpaceOnUse" x="-14" y="-41" width="299" height="299">
            <path fill-rule="evenodd" clip-rule="evenodd" d="M-13.4766 -40.146V257.854H284.523V-40.146H-13.4766Z" fill="white"/>
        </mask>
        <g mask="url(#mask87_791_11418)">
            <path d="M185.959 117.67L198.129 109.178L196.43 104.476L184.179 115.005L185.959 117.67Z" fill="white"/>
        </g>
        <mask id="mask88_791_11418" style="mask-type:luminance" maskUnits="userSpaceOnUse" x="-14" y="-41" width="299" height="299">
            <path fill-rule="evenodd" clip-rule="evenodd" d="M-13.4766 -40.146V257.854H284.523V-40.146H-13.4766Z" fill="white"/>
        </mask>
        <g mask="url(#mask88_791_11418)">
            <path d="M194.879 108.02C195.456 109.239 196.911 109.759 198.129 109.183C199.348 108.606 199.868 107.151 199.292 105.933C198.715 104.714 197.261 104.194 196.042 104.77C194.823 105.347 194.303 106.801 194.879 108.02Z" fill="white"/>
        </g>
        <mask id="mask89_791_11418" style="mask-type:luminance" maskUnits="userSpaceOnUse" x="-14" y="-41" width="299" height="299">
            <path fill-rule="evenodd" clip-rule="evenodd" d="M-13.4766 -40.146V257.854H284.523V-40.146H-13.4766Z" fill="white"/>
        </mask>
        <g mask="url(#mask89_791_11418)">
            <path d="M195.487 108.894L198.956 105.461L188.936 94.1935C187.798 92.6582 185.564 92.4871 184.206 93.8311C182.848 95.1757 182.995 98.9114 184.518 100.066L195.487 108.894Z" fill="white"/>
        </g>
        <mask id="mask90_791_11418" style="mask-type:luminance" maskUnits="userSpaceOnUse" x="-14" y="-41" width="299" height="299">
            <path fill-rule="evenodd" clip-rule="evenodd" d="M-13.4766 -40.146V257.854H284.523V-40.146H-13.4766Z" fill="white"/>
        </mask>
        <g mask="url(#mask90_791_11418)">
            <path d="M178.529 93.324L182.632 93.6715L183.36 85.076L179.258 84.7285L178.529 93.324Z" fill="#D1C4E9"/>
        </g>
        <mask id="mask91_791_11418" style="mask-type:luminance" maskUnits="userSpaceOnUse" x="-14" y="-41" width="299" height="299">
            <path fill-rule="evenodd" clip-rule="evenodd" d="M-13.4766 -40.146V257.854H284.523V-40.146H-13.4766Z" fill="white"/>
        </mask>
        <g mask="url(#mask91_791_11418)">
            <path d="M159.857 97.4636C158.511 97.5535 157.495 98.7169 157.585 100.062C157.675 101.407 158.838 102.424 160.183 102.334C161.528 102.243 162.545 101.081 162.455 99.7355C162.365 98.3909 161.201 97.3736 159.857 97.4636Z" fill="white"/>
        </g>
        <mask id="mask92_791_11418" style="mask-type:luminance" maskUnits="userSpaceOnUse" x="-14" y="-41" width="299" height="299">
            <path fill-rule="evenodd" clip-rule="evenodd" d="M-13.4766 -40.146V257.854H284.523V-40.146H-13.4766Z" fill="white"/>
        </mask>
        <g mask="url(#mask92_791_11418)">
            <path d="M158.32 97.8257L160.792 102.218L175.902 97.8233C177.753 97.3513 178.758 93.848 178.028 92.0821C177.299 90.3155 175.175 89.6051 173.529 90.5778L158.32 97.8257Z" fill="white"/>
        </g>
        <mask id="mask93_791_11418" style="mask-type:luminance" maskUnits="userSpaceOnUse" x="-14" y="-41" width="299" height="299">
            <path fill-rule="evenodd" clip-rule="evenodd" d="M-13.4766 -40.146V257.854H284.523V-40.146H-13.4766Z" fill="white"/>
        </mask>
        <g mask="url(#mask93_791_11418)">
            <path d="M181.441 114.77L189.088 96.0069C189.473 94.471 188.438 92.941 186.87 92.7283L175.892 90.2394C174.323 90.0266 172.918 91.2258 172.881 92.8087L169.123 113.27L181.441 114.77Z" fill="white"/>
        </g>
        <mask id="mask94_791_11418" style="mask-type:luminance" maskUnits="userSpaceOnUse" x="-14" y="-41" width="299" height="299">
            <path fill-rule="evenodd" clip-rule="evenodd" d="M-13.4766 -40.146V257.854H284.523V-40.146H-13.4766Z" fill="white"/>
        </mask>
        <g mask="url(#mask94_791_11418)">
            <path d="M180.209 74.7283C178.942 76.3315 176.662 77.0068 176.126 78.4765L176.011 79.1554L176.012 79.2495L175.999 79.2281L175.652 81.2866C175.212 83.8918 176.967 86.3598 179.571 86.7996C182.177 87.2395 184.645 85.4849 185.085 82.8798L185.476 80.5631C185.207 78.2041 180.898 78.0224 180.209 74.7283Z" fill="#D1C4E9"/>
        </g>
        <mask id="mask95_791_11418" style="mask-type:luminance" maskUnits="userSpaceOnUse" x="-14" y="-41" width="299" height="299">
            <path fill-rule="evenodd" clip-rule="evenodd" d="M-13.4766 -40.146V257.854H284.523V-40.146H-13.4766Z" fill="white"/>
        </mask>
        <g mask="url(#mask95_791_11418)">
            <path d="M184.585 81.7846C184.483 82.3895 184.89 82.9629 185.495 83.0648C186.1 83.1673 186.673 82.7596 186.775 82.1547C186.877 81.5498 186.47 80.9764 185.865 80.8745C185.26 80.7726 184.687 81.1796 184.585 81.7846Z" fill="#D1C4E9"/>
        </g>
        <mask id="mask96_791_11418" style="mask-type:luminance" maskUnits="userSpaceOnUse" x="-14" y="-41" width="299" height="299">
            <path fill-rule="evenodd" clip-rule="evenodd" d="M-13.4766 -40.146V257.854H284.523V-40.146H-13.4766Z" fill="white"/>
        </mask>
        <g mask="url(#mask96_791_11418)">
            <path d="M174.532 113.932L180.034 127.514L174.776 190.971H170.739L165.982 127.119L169.123 113.273L174.532 113.932Z" fill="#0858FF"/>
        </g>
        <mask id="mask97_791_11418" style="mask-type:luminance" maskUnits="userSpaceOnUse" x="-14" y="-41" width="299" height="299">
            <path fill-rule="evenodd" clip-rule="evenodd" d="M-13.4766 -40.146V257.854H284.523V-40.146H-13.4766Z" fill="white"/>
        </mask>
        <g mask="url(#mask97_791_11418)">
            <path d="M174.531 113.932V127.514L199.296 190.971H202.333L189.083 125.119L181.44 114.773L174.531 113.932Z" fill="#3A7FFF"/>
        </g>
        <mask id="mask98_791_11418" style="mask-type:luminance" maskUnits="userSpaceOnUse" x="-14" y="-41" width="299" height="299">
            <path fill-rule="evenodd" clip-rule="evenodd" d="M-13.4766 -40.146V257.854H284.523V-40.146H-13.4766Z" fill="white"/>
        </mask>
        <g mask="url(#mask98_791_11418)">
            <path d="M173 194.287H171.312V190.973H173.5L173 194.287Z" fill="#D1C4E9"/>
        </g>
        <mask id="mask99_791_11418" style="mask-type:luminance" maskUnits="userSpaceOnUse" x="-14" y="-41" width="299" height="299">
            <path fill-rule="evenodd" clip-rule="evenodd" d="M-13.4766 -40.146V257.854H284.523V-40.146H-13.4766Z" fill="white"/>
        </mask>
        <g mask="url(#mask99_791_11418)">
            <path d="M171.256 193.535L172.244 193.969L173.161 193.535L173.985 196.223H166.35L169.22 194.879L171.256 193.535Z" fill="#00004B"/>
        </g>
        <mask id="mask100_791_11418" style="mask-type:luminance" maskUnits="userSpaceOnUse" x="-14" y="-41" width="299" height="299">
            <path fill-rule="evenodd" clip-rule="evenodd" d="M-13.4766 -40.146V257.854H284.523V-40.146H-13.4766Z" fill="white"/>
        </mask>
        <g mask="url(#mask100_791_11418)">
            <path d="M201.296 194.287H202.984L201.983 190.973H199.795L201.296 194.287Z" fill="#D1C4E9"/>
        </g>
        <mask id="mask101_791_11418" style="mask-type:luminance" maskUnits="userSpaceOnUse" x="-14" y="-41" width="299" height="299">
            <path fill-rule="evenodd" clip-rule="evenodd" d="M-13.4766 -40.146V257.854H284.523V-40.146H-13.4766Z" fill="white"/>
        </mask>
        <g mask="url(#mask101_791_11418)">
            <path d="M203.043 193.535L202.054 193.969L201.137 193.535L200.313 196.223H207.949L205.078 194.879L203.043 193.535Z" fill="#00004B"/>
        </g>
        <mask id="mask102_791_11418" style="mask-type:luminance" maskUnits="userSpaceOnUse" x="-14" y="-41" width="299" height="299">
            <path fill-rule="evenodd" clip-rule="evenodd" d="M-13.4766 -40.146V257.854H284.523V-40.146H-13.4766Z" fill="white"/>
        </mask>
        <g mask="url(#mask102_791_11418)">
            <path d="M176.564 100.475C176.564 102.389 175.012 103.94 173.099 103.94C171.184 103.94 169.633 102.389 169.633 100.475C169.633 98.5607 171.184 97.0093 173.099 97.0093C175.012 97.0093 176.564 98.5607 176.564 100.475Z" fill="white"/>
        </g>
        <mask id="mask103_791_11418" style="mask-type:luminance" maskUnits="userSpaceOnUse" x="-14" y="-41" width="299" height="299">
            <path fill-rule="evenodd" clip-rule="evenodd" d="M-13.4766 -40.146V257.854H284.523V-40.146H-13.4766Z" fill="white"/>
        </mask>
        <g mask="url(#mask103_791_11418)">
            <path d="M176.209 90.3318L176.648 97.7734L183.078 91.221L176.209 90.3318Z" fill="#D1C4E9"/>
        </g>
        <mask id="mask104_791_11418" style="mask-type:luminance" maskUnits="userSpaceOnUse" x="-14" y="-41" width="299" height="299">
            <path fill-rule="evenodd" clip-rule="evenodd" d="M-13.4766 -40.146V257.854H284.523V-40.146H-13.4766Z" fill="white"/>
        </mask>
        <g mask="url(#mask104_791_11418)">
            <path d="M190.21 75.3068C189.659 74.6059 188.988 74.0396 188.244 73.6475C187.035 73.011 185.669 73.0807 184.56 72.1253L185.426 80.8585C187.017 80.4037 186.922 83.8301 185.084 82.8831C185.084 82.8831 181.441 84.4422 180.058 87.8526C179.11 90.143 178.952 92.8143 179.201 94.3442C179.645 97.0816 181.969 98.5001 184.606 97.6943C186.18 97.2133 187.462 96.0231 188.37 94.6499C191.558 89.8325 193.682 81.9206 190.955 76.4839C190.743 76.0601 190.492 75.6655 190.21 75.3068Z" fill="#0858FF"/>
        </g>
        <mask id="mask105_791_11418" style="mask-type:luminance" maskUnits="userSpaceOnUse" x="-14" y="3" width="299" height="255">
            <path fill-rule="evenodd" clip-rule="evenodd" d="M-13.4766 3.99854L-13.4766 257.854H284.523V3.99854H-13.4766Z" fill="white"/>
        </mask>
        <g mask="url(#mask105_791_11418)">
            <path d="M160.908 74.2504L160.819 74.8047C160.633 75.9633 161.421 77.0534 162.579 77.24L163.484 77.3854C164.642 77.5719 165.732 76.784 165.919 75.626L166.008 75.0717L160.908 74.2504Z" fill="#D1C4E9"/>
        </g>
        <path d="M-8.49983 196L161.5 196.5L278.5 196C278.629 196 279.5 197.447 279.5 198.001C279.5 198.553 279.397 199 279.269 199H-8.26813C-8.39602 199 -8.4997 198.553 -8.4997 198.001C-8.4997 197.447 -8.62773 196 -8.49983 196Z" fill="#D1F2F2"/>
    </g>
</svg>
