<svg width="24" height="24" viewBox="0 0 24 24" fill="none" xmlns="http://www.w3.org/2000/svg">
    <g clip-path="url(#clip0_860_34642)">
        <mask id="mask0_860_34642" style="mask-type:luminance" maskUnits="userSpaceOnUse" x="0" y="0" width="24" height="24">
            <path d="M0 0H24V24H0V0Z" fill="white"/>
        </mask>
        <g mask="url(#mask0_860_34642)">
            <path d="M4.81699 11.9977C4.81699 9.90598 5.7327 8.02975 7.1691 6.71908L8.54266 8.09259C8.82096 8.37088 9.30575 8.17338 9.30575 7.76941V3.9182C9.30575 3.66684 9.10824 3.46934 8.85687 3.46934H5.00552C4.60153 3.46934 4.40402 3.95411 4.6913 4.2324L5.89429 5.44432C4.1347 7.07817 3.02148 9.40326 3.02148 11.9977C3.02148 16.2618 6.00202 19.8347 9.98804 20.7504C10.5536 20.8761 11.1013 20.4542 11.1013 19.8706C11.1013 19.4487 10.805 19.0896 10.392 18.9909C7.20501 18.2637 4.81699 15.409 4.81699 11.9977ZM20.9765 11.9977C20.9765 7.7335 17.996 4.16058 14.01 3.24491C13.4444 3.11923 12.8968 3.54116 12.8968 4.12468C12.8968 4.5466 13.193 4.90569 13.606 5.00444C16.793 5.73159 19.181 8.58633 19.181 11.9977C19.181 14.0893 18.2653 15.9656 16.8289 17.2762L15.4553 15.9027C15.177 15.6244 14.6923 15.8219 14.6923 16.2259V20.0771C14.6923 20.3285 14.8898 20.526 15.1411 20.526H18.9925C19.3965 20.526 19.594 20.0412 19.3067 19.7629L18.1037 18.551C19.8633 16.9171 20.9765 14.5921 20.9765 11.9977Z" fill="black"/>
        </g>
    </g>
    <defs>
        <clipPath id="clip0_860_34642">
            <rect width="24" height="24" fill="white"/>
        </clipPath>
    </defs>
</svg>
