<svg viewBox="0 0 52 53" fill="none" xmlns="http://www.w3.org/2000/svg">
    <g opacity="0.8">
        <path opacity="0.98" d="M26 52.5195C40.3594 52.5195 52 40.8789 52 26.5195C52 12.1601 40.3594 0.519531 26 0.519531C11.6406 0.519531 0 12.1601 0 26.5195C0 40.8789 11.6406 52.5195 26 52.5195Z" fill="url(#paint0_linear_860_34859)"/>
    </g>
    <path d="M39.57 15.9598C39.2853 16.1551 39.2129 16.5442 39.4086 16.8287C49.9341 32.5059 29.8272 50.3697 15.4631 38.364C15.4634 38.3642 17.2485 38.1092 17.2485 38.1092C18.0598 37.9776 17.8878 36.772 17.0715 36.872C17.0715 36.872 13.978 37.3139 13.978 37.3139C13.7053 37.361 13.4941 37.5697 13.4479 37.844C13.4479 37.844 13.006 40.9376 13.006 40.9376C12.9053 41.7483 14.1091 41.9304 14.2432 41.1145C14.2432 41.1146 14.5163 39.2028 14.5163 39.2028C30.1074 52.346 51.7388 33.1149 40.4386 16.1211C40.2435 15.8372 39.8544 15.7633 39.57 15.9598Z" fill="black"/>
    <path d="M12.0758 36.1499C12.5662 36.1581 12.8774 35.5716 12.5903 35.1712C2.27308 19.2691 21.8273 1.697 36.5355 13.6358C36.5354 13.6357 34.7503 13.8907 34.7503 13.8907C33.9344 14.0236 34.1177 15.2318 34.9273 15.1279C34.9273 15.1279 38.0209 14.686 38.0209 14.686C38.2934 14.6391 38.5049 14.4301 38.5509 14.1559C38.551 14.1559 38.9929 11.0623 38.9929 11.0623C39.0934 10.2497 37.8863 10.0712 37.7557 10.8854C37.7557 10.8853 37.4826 12.7971 37.4826 12.7971C26.299 2.97584 8.44845 11.1026 8.50011 26C8.50001 29.5471 9.55806 32.963 11.56 35.8786C11.6812 36.055 11.8768 36.1499 12.0758 36.1499Z" fill="black"/>
    <path d="M16.7227 21.1476C16.7227 20.6174 17.0529 20.1433 17.5503 19.9595L25.8733 16.8848C26.1565 16.7802 26.4678 16.7802 26.7511 16.8848L35.0741 19.9595C35.5714 20.1433 35.9017 20.6174 35.9017 21.1476V31.3651C35.9017 31.8901 35.5778 32.3607 35.0873 32.5482L26.7643 35.7289C26.4732 35.8402 26.1512 35.8402 25.86 35.7289L17.5371 32.5482C17.0466 32.3607 16.7227 31.8901 16.7227 31.3651L16.7227 21.1476Z" stroke="#323232" stroke-width="1.26657"/>
    <path d="M25.6813 31.9888H25.0504L25.6813 27.5726H23.4732C23.1073 27.5726 23.1136 27.3707 23.2335 27.1562C23.3533 26.9417 23.265 27.1057 23.2776 27.0805C24.0915 25.6421 25.3154 23.4971 26.9431 20.6328H27.574L26.9431 25.049H29.1512C29.4604 25.049 29.5045 25.2572 29.4477 25.3708L29.4036 25.4654C26.9179 29.8123 25.6813 31.9888 25.6813 31.9888Z" fill="#323232"/>
    <defs>
        <linearGradient id="paint0_linear_860_34859" x1="26" y1="0.519531" x2="26" y2="52.5195" gradientUnits="userSpaceOnUse">
            <stop stop-color="#ECDFFD"/>
            <stop offset="1" stop-color="#ECDFFD" stop-opacity="0"/>
        </linearGradient>
    </defs>
</svg>
