<svg width="18" height="16" viewBox="0 0 18 16" fill="none" xmlns="http://www.w3.org/2000/svg">
    <path fill-rule="evenodd" clip-rule="evenodd" d="M6.65869 7.75015C7.1942 7.75015 7.5289 7.17044 7.26114 6.70668L4.28025 1.54363C4.0125 1.07986 3.3431 1.07986 3.07535 1.54363L0.0944608 6.70668C-0.173296 7.17044 0.161399 7.75015 0.696913 7.75015H6.65869ZM0.696691 8.25016C0.161177 8.25016 -0.173519 8.82987 0.0942376 9.29364L3.07512 14.4567C3.34288 14.9205 4.01227 14.9205 4.28003 14.4567L7.26092 9.29364C7.52867 8.82987 7.19398 8.25016 6.65846 8.25016L0.696691 8.25016Z" fill="#F19890"/>
    <path fill-rule="evenodd" clip-rule="evenodd" d="M12.4474 1.04348C12.7152 0.579711 12.3805 -4.85855e-08 11.845 0L5.88321 5.40894e-07C5.3477 5.89479e-07 5.013 0.579711 5.28076 1.04348L8.26165 6.20653C8.52941 6.6703 9.1988 6.6703 9.46655 6.20653L12.4474 1.04348ZM9.89923 6.45652C9.63147 6.92029 9.96617 7.5 10.5017 7.5H16.4635C16.999 7.5 17.3337 6.92029 17.0659 6.45653L14.085 1.29348C13.8173 0.829708 13.1479 0.829707 12.8801 1.29348L9.89923 6.45652Z" fill="#FADEDD"/>
    <path fill-rule="evenodd" clip-rule="evenodd" d="M12.8725 14.7065C13.1403 15.1703 13.8097 15.1703 14.0774 14.7065L17.0583 9.54348C17.3261 9.07971 16.9914 8.5 16.4559 8.5H10.4941C9.95858 8.5 9.62388 9.07971 9.89164 9.54348L12.8725 14.7065ZM9.45874 9.79347C9.19099 9.3297 8.52159 9.3297 8.25384 9.79346L5.27295 14.9565C5.00519 15.4203 5.33989 16 5.8754 16L11.8372 16C12.3727 16 12.7074 15.4203 12.4396 14.9565L9.45874 9.79347Z" fill="#EE766A"/>
</svg>